<svg width="12" height="12" viewBox="0 0 12 12" fill="none" xmlns="http://www.w3.org/2000/svg">
    <path
        d="M4.50001 7.50015L7.50001 4.50015M5.50001 3.00015L5.73151 2.73215C6.20041 2.26332 6.83635 1.99995 7.49943 2C8.16251 2.00005 8.79842 2.2635 9.26726 2.7324C9.73609 3.20131 9.99946 3.83725 9.99941 4.50033C9.99936 5.16341 9.73591 5.79932 9.26701 6.26815L9.00001 6.50015M6.50001 9.00015L6.30151 9.26715C5.827 9.73601 5.18682 9.99894 4.51976 9.99894C3.85269 9.99894 3.21251 9.73601 2.73801 9.26715C2.50406 9.03602 2.31832 8.76075 2.19156 8.45731C2.06479 8.15386 1.99951 7.82827 1.99951 7.4994C1.99951 7.17054 2.06479 6.84495 2.19156 6.5415C2.31832 6.23805 2.50406 5.96278 2.73801 5.73165L3.00001 5.50015"
        stroke="#FF5220" stroke-linecap="round" stroke-linejoin="round" />
</svg>