<svg width="132" height="26" viewBox="0 0 132 26" fill="none" xmlns="http://www.w3.org/2000/svg">
<path d="M28.3974 2.58929C26.2843 1.6131 24.0432 0.916667 21.6742 0.5C21.3796 1.01786 21.0492 1.71429 20.8081 2.26786C18.3081 1.90476 15.823 1.90476 13.3528 2.26786C13.1206 1.71429 12.7724 1.01786 12.4867 0.5C10.16 0.899677 7.89633 1.60519 5.75455 2.59821C1.49562 8.98214 0.33491 15.1875 0.924195 21.3125C3.40778 23.1754 6.19633 24.5923 9.16527 25.5C9.83789 24.5893 10.4272 23.628 10.9331 22.6161C9.97065 22.2505 9.0416 21.8024 8.15634 21.2768L8.83491 20.7411C11.411 21.9664 14.2278 22.6022 17.0804 22.6022C19.9331 22.6022 22.7499 21.9664 25.326 20.7411L26.0135 21.2768C25.1206 21.8125 24.1921 22.2589 23.2278 22.6161C23.731 23.6237 24.3163 24.5883 24.9778 25.5C27.9536 24.5915 30.7483 23.1714 33.2367 21.3036C33.9225 14.6855 32.2013 8.0419 28.3885 2.58929M11.6742 17.5536C10.0671 17.5536 8.74562 16.0625 8.74562 14.25C8.74562 12.4375 10.0403 10.9464 11.6742 10.9464C13.3171 10.9464 14.6385 12.4286 14.6028 14.25C14.6028 16.0625 13.3171 17.5536 11.6742 17.5536ZM22.5046 17.5536C20.8974 17.5536 19.576 16.0625 19.576 14.25C19.576 12.4375 20.8706 10.9464 22.5046 10.9464C24.1474 10.9464 25.4688 12.4286 25.4421 14.25C25.4421 16.0625 24.1474 17.5536 22.5046 17.5536Z" fill="url(#paint0_linear_767_8504)"/>
<path d="M44.594 6.875H51.594C53.2785 6.875 54.7071 7.14286 55.8797 7.67857C57.0404 8.21429 57.9124 8.95536 58.4958 9.90179C59.0732 10.8542 59.3619 11.9405 59.3619 13.1607C59.3619 14.3571 59.0613 15.4435 58.4601 16.4196C57.7861 17.449 56.8232 18.2566 55.6922 18.7411C54.4601 19.3065 52.9244 19.5893 51.0851 19.5893H44.594V6.875ZM51.0226 16.3571C52.1535 16.3571 53.0255 16.0714 53.6386 15.5C53.9462 15.1922 54.1861 14.8235 54.3429 14.4176C54.4997 14.0117 54.57 13.5775 54.5494 13.1429C54.5494 12.2262 54.2815 11.4911 53.7458 10.9375C53.1922 10.3839 52.3678 10.1071 51.2726 10.1071H49.0851V16.3571H51.0226Z" fill="url(#paint1_linear_767_8504)"/>
<path d="M69.8441 19.5716C68.8798 19.3156 68.0078 18.9466 67.228 18.4644V15.4466C67.8173 15.9049 68.603 16.2859 69.5852 16.5894C70.5733 16.887 71.5286 17.0359 72.4512 17.0359C72.8798 17.0359 73.2072 16.9763 73.4334 16.8573C73.6536 16.7382 73.7637 16.6013 73.7637 16.4466C73.7649 16.3641 73.7498 16.2821 73.7191 16.2055C73.6885 16.1289 73.6429 16.0591 73.5852 16.0001C73.4661 15.8751 73.231 15.771 72.8798 15.6876L70.728 15.1966C69.7551 15.0417 68.8437 14.6215 68.0941 13.9823C67.8315 13.7184 67.6268 13.4026 67.4931 13.0552C67.3593 12.7078 67.2995 12.3363 67.3173 11.9644C67.3173 11.262 67.5465 10.6489 68.0048 10.1251C68.5353 9.5623 69.203 9.14694 69.9423 8.91978C70.7756 8.63407 71.7578 8.49121 72.8887 8.49121C73.8887 8.49121 74.8084 8.60133 75.6477 8.82157C76.481 9.03585 77.1745 9.31562 77.728 9.66085V12.5091C76.4336 11.7962 74.9825 11.4158 73.5048 11.4019C72.3798 11.4019 71.8173 11.5954 71.8173 11.9823C71.8173 12.1609 71.9066 12.2948 72.0852 12.3841C72.2637 12.4734 72.5822 12.5686 73.0405 12.6698L74.8352 13.0001C76.0078 13.2085 76.8828 13.5656 77.4602 14.0716C78.0316 14.5894 78.3173 15.3513 78.3173 16.3573C78.3173 17.4585 77.8411 18.3335 76.8887 18.9823C75.9423 19.637 74.5941 19.9644 72.8441 19.9644C71.8312 19.9649 70.8227 19.8329 69.8441 19.5716Z" fill="url(#paint2_linear_767_8504)"/>
<path d="M82.5583 19.1875C81.5966 18.7419 80.7887 18.021 80.2368 17.1161C79.7102 16.2276 79.4384 15.2113 79.4511 14.1786C79.4511 13.0893 79.719 12.1131 80.2547 11.25C80.8289 10.3569 81.6555 9.65454 82.6297 9.23214C83.8067 8.72289 85.0796 8.47318 86.3618 8.5C88.1594 8.5 89.6475 8.88095 90.8261 9.64286V12.9643C89.8749 12.3064 88.7415 11.9629 87.585 11.9821C86.4719 11.9821 85.5999 12.1905 84.969 12.6071C84.344 13.0179 84.0315 13.5536 84.0315 14.2143C84.0315 14.869 84.335 15.4048 84.9422 15.8214C85.5553 16.2381 86.4422 16.4464 87.6029 16.4464C88.1981 16.4464 88.7874 16.3601 89.3708 16.1875C89.9481 16.0089 90.4481 15.7946 90.8708 15.5446V18.7589C89.4847 19.5754 87.8987 19.9897 86.2904 19.9554C84.8261 19.9554 83.5821 19.6994 82.5583 19.1875Z" fill="url(#paint3_linear_767_8504)"/>
<path d="M95.3079 19.1873C94.3359 18.731 93.5149 18.006 92.9418 17.098C92.3942 16.217 92.1204 15.2319 92.1204 14.1426C92.1204 13.0534 92.3942 12.0801 92.9418 11.223C93.4775 10.3778 94.2632 9.70811 95.2989 9.21407C96.4601 8.71538 97.7139 8.46888 98.9775 8.49085C100.406 8.49085 101.635 8.73192 102.665 9.21407C103.627 9.6361 104.443 10.3316 105.013 11.2141C105.549 12.0593 105.817 13.0355 105.817 14.1426C105.817 15.2319 105.549 16.217 105.013 17.098C104.452 18.0162 103.628 18.7443 102.647 19.1873C101.504 19.7276 100.25 19.9907 98.9864 19.9551C97.7168 19.9935 96.4561 19.7304 95.3079 19.1873ZM100.763 15.973C101.198 15.5325 101.415 14.9462 101.415 14.2141C101.415 13.4879 101.198 12.9105 100.763 12.4819C100.525 12.2595 100.243 12.0879 99.9363 11.9774C99.6293 11.8669 99.3032 11.8198 98.9775 11.8391C98.2096 11.8391 97.6085 12.0534 97.1739 12.4819C96.9523 12.7105 96.7801 12.9823 96.668 13.2802C96.5558 13.5782 96.5062 13.8961 96.5221 14.2141C96.5221 14.9462 96.7394 15.5295 97.1739 15.9641C97.6085 16.4105 98.2096 16.6337 98.9775 16.6337C99.305 16.6494 99.6324 16.5981 99.9394 16.483C100.246 16.3678 100.527 16.1913 100.763 15.9641" fill="url(#paint4_linear_767_8504)"/>
<path d="M116.603 9.1605V13.0891C116.068 12.7661 115.449 12.6106 114.826 12.6426C113.868 12.6426 113.132 12.9343 112.621 13.5176C112.109 14.101 111.85 15.0117 111.844 16.2498V19.5891H107.451V8.96408H111.763V12.348C112.002 11.1099 112.388 10.1962 112.924 9.60693C113.454 9.0236 114.138 8.73193 114.978 8.73193C115.603 8.73193 116.144 8.87777 116.603 9.16943" fill="url(#paint5_linear_767_8504)"/>
<path d="M131.219 6.51807V19.5895H126.817V17.2145C126.488 18.0618 125.893 18.7793 125.121 19.2591C124.359 19.7234 123.424 19.9556 122.317 19.9556C121.406 19.9716 120.511 19.7194 119.743 19.2304C118.974 18.7415 118.367 18.0373 117.996 17.2056C117.593 16.2914 117.386 15.3029 117.388 14.3038C117.352 13.2689 117.573 12.2411 118.031 11.3127C118.446 10.4562 119.096 9.73569 119.906 9.23592C120.716 8.73614 121.651 8.47781 122.603 8.49128C124.692 8.49128 126.097 9.4139 126.817 11.2591V6.51807H131.219ZM126.165 15.8931C126.612 15.4585 126.835 14.8871 126.835 14.1788C126.835 13.5002 126.618 12.9496 126.183 12.527C125.694 12.0895 125.053 11.8619 124.397 11.8931C123.653 11.8931 123.058 12.1074 122.612 12.5359C122.391 12.7543 122.218 13.0165 122.104 13.3055C121.99 13.5945 121.938 13.9041 121.951 14.2145C121.951 14.905 122.174 15.4704 122.621 15.9109C123.067 16.3454 123.653 16.5627 124.38 16.5627C125.124 16.5627 125.719 16.3395 126.165 15.8931Z" fill="url(#paint6_linear_767_8504)"/>
<path d="M63.0761 10.0984C64.2814 10.0984 65.2636 9.2055 65.2636 8.10728C65.2636 7.00014 64.2814 6.11621 63.0761 6.11621C61.8618 6.11621 60.8796 7.00907 60.8796 8.10728C60.8796 9.2055 61.8618 10.0984 63.0761 10.0984Z" fill="url(#paint7_linear_767_8504)"/>
<path d="M60.8706 11.4731C62.2188 12.0535 63.8885 12.0803 65.2635 11.4731V19.6517H60.8706V11.4731Z" fill="url(#paint8_linear_767_8504)"/>
<defs>
<linearGradient id="paint0_linear_767_8504" x1="65.9956" y1="0.5" x2="65.9956" y2="25.5" gradientUnits="userSpaceOnUse">
<stop stop-color="white"/>
<stop offset="1" stop-color="#D3D3D3"/>
</linearGradient>
<linearGradient id="paint1_linear_767_8504" x1="65.9958" y1="0.500001" x2="65.9958" y2="25.5" gradientUnits="userSpaceOnUse">
<stop stop-color="white"/>
<stop offset="1" stop-color="#D3D3D3"/>
</linearGradient>
<linearGradient id="paint2_linear_767_8504" x1="65.9959" y1="0.500139" x2="65.9959" y2="25.5001" gradientUnits="userSpaceOnUse">
<stop stop-color="white"/>
<stop offset="1" stop-color="#D3D3D3"/>
</linearGradient>
<linearGradient id="paint3_linear_767_8504" x1="65.9958" y1="0.5" x2="65.9958" y2="25.5" gradientUnits="userSpaceOnUse">
<stop stop-color="white"/>
<stop offset="1" stop-color="#D3D3D3"/>
</linearGradient>
<linearGradient id="paint4_linear_767_8504" x1="65.9954" y1="0.49978" x2="65.9954" y2="25.4998" gradientUnits="userSpaceOnUse">
<stop stop-color="white"/>
<stop offset="1" stop-color="#D3D3D3"/>
</linearGradient>
<linearGradient id="paint5_linear_767_8504" x1="65.9956" y1="0.499791" x2="65.9956" y2="25.4998" gradientUnits="userSpaceOnUse">
<stop stop-color="white"/>
<stop offset="1" stop-color="#D3D3D3"/>
</linearGradient>
<linearGradient id="paint6_linear_767_8504" x1="65.9956" y1="0.500209" x2="65.9956" y2="25.5002" gradientUnits="userSpaceOnUse">
<stop stop-color="white"/>
<stop offset="1" stop-color="#D3D3D3"/>
</linearGradient>
<linearGradient id="paint7_linear_767_8504" x1="65.9957" y1="0.500139" x2="65.9957" y2="25.5001" gradientUnits="userSpaceOnUse">
<stop stop-color="white"/>
<stop offset="1" stop-color="#D3D3D3"/>
</linearGradient>
<linearGradient id="paint8_linear_767_8504" x1="65.9956" y1="0.499929" x2="65.9956" y2="25.4999" gradientUnits="userSpaceOnUse">
<stop stop-color="white"/>
<stop offset="1" stop-color="#D3D3D3"/>
</linearGradient>
</defs>
</svg>
