<svg width="48" height="48" viewBox="0 0 48 48" fill="none" xmlns="http://www.w3.org/2000/svg">
<g clip-path="url(#clip0_767_8377)">
<path d="M5.82485 45L5.61365 44.7912C8.14325 37.6488 9.40085 33.8616 9.61205 33.6504L21.372 21.8904C20.9592 23.784 18.6408 31.344 14.8656 45H5.82485ZM11.28 28.8288H11.0688C11.4888 27.3624 12.1176 26.3136 13.1664 25.4688C16.5264 22.1088 19.8864 18.7488 23.2464 15.6024C23.0958 16.5476 22.6643 17.4256 22.008 18.1224L11.28 28.8288ZM15.9144 14.9784C18.4296 6.996 19.8984 3 20.1072 3H27.8784C24.944 5.9504 20.956 9.9432 15.9144 14.9784ZM13.596 22.1064H13.3848C14.6568 18.3312 15.2856 16.4448 15.4944 16.236L28.32 3.6288C28.5312 3.6288 28.9488 4.4808 29.3688 6.3672L13.596 22.1064ZM24.7344 15.3864H24.5232C24.5232 14.7576 24.3144 14.5488 24.3144 14.5488V14.34C25.9944 12.4392 28.1016 10.5528 30.1992 8.664C30.408 8.8752 30.408 9.2928 30.408 9.504C28.32 11.82 26.412 13.7064 24.7344 15.396V15.3864ZM42.1632 45H33.1344C32.9232 45 32.2944 42.8904 31.2456 39.1152C27.8856 26.9424 25.7832 19.8 25.3632 17.9136L31.2456 12.0288H31.4568C32.2944 14.5584 35.8728 25.4688 42.3864 44.7912L42.1632 45Z" fill="#FF5220"/>
</g>
<defs>
<clipPath id="clip0_767_8377">
<rect width="48" height="48" fill="white"/>
</clipPath>
</defs>
</svg>
