<svg width="1339" height="409" viewBox="0 0 1339 409" fill="none" xmlns="http://www.w3.org/2000/svg">
<path d="M212.122 180.52C212.122 180.654 212.111 180.798 212.1 180.932C210.1 180.342 208.089 179.775 206.078 179.241C202.322 178.218 198.567 177.273 194.789 176.405C192.244 175.816 189.711 175.26 187.156 174.748C185.878 174.481 184.611 174.236 183.333 173.992C182.1 173.758 180.867 173.536 179.633 173.313C179.589 173.302 179.544 173.302 179.5 173.291C179.478 173.28 179.467 173.28 179.455 173.28C178.489 173.102 177.511 172.935 176.544 172.779C175.267 172.557 174 172.357 172.733 172.168C171.478 171.968 170.211 171.779 168.956 171.601C167.833 171.434 166.711 171.289 165.6 171.145C164.978 171.056 164.367 170.978 163.744 170.9C163.022 170.811 162.289 170.722 161.567 170.644C160.822 170.555 160.067 170.466 159.322 170.388C157.078 170.132 154.833 169.91 152.589 169.721C151.667 169.643 150.744 169.565 149.833 169.499C148.822 169.41 147.822 169.332 146.811 169.265C145.533 169.176 144.256 169.098 142.967 169.031C140.289 168.876 137.611 168.765 134.922 168.687C134.356 168.664 133.789 168.653 133.222 168.642C130.433 168.564 127.644 168.531 124.856 168.542C122.078 168.531 119.3 168.564 116.522 168.642C115.933 168.653 115.344 168.664 114.756 168.687C112.078 168.765 109.411 168.876 106.744 169.031C105.444 169.098 104.156 169.176 102.856 169.276C101.889 169.332 100.933 169.41 99.9667 169.487C99.0111 169.554 98.0667 169.632 97.1222 169.721C94.8778 169.91 92.6333 170.132 90.3889 170.388C89.6333 170.466 88.8778 170.555 88.1222 170.644C87.3555 170.733 86.5889 170.822 85.8222 170.922C84.1333 171.133 82.4444 171.356 80.7444 171.601C79.4778 171.779 78.2111 171.968 76.9444 172.168C75.6667 172.357 74.3889 172.568 73.1111 172.779C72.1556 172.946 71.2 173.113 70.2444 173.28C70.2333 173.28 70.2222 173.291 70.2 173.291C70.1556 173.302 70.1111 173.302 70.0667 173.313C68.8333 173.525 67.6 173.758 66.3667 173.992C65.0889 174.236 63.8222 174.481 62.5444 174.748C60 175.26 57.4444 175.816 54.9111 176.405C51.2333 177.25 47.5778 178.173 43.9222 179.163C41.8111 179.719 39.7111 180.32 37.6111 180.932C37.6 180.798 37.5889 180.654 37.5889 180.52C37.3778 177.651 37.3778 174.815 37.5556 171.99C38.1 163.37 40.3445 154.996 43.9222 147.155C46.7889 140.86 50.5222 134.91 54.9111 129.449C66.0222 115.603 81.3889 104.893 97.8444 99.7543C106.833 96.9405 115.933 95.6615 124.856 95.7616C133.778 95.6615 142.878 96.9405 151.867 99.7543C168.322 104.893 183.678 115.592 194.789 129.427C199.333 135.077 203.167 141.261 206.078 147.8C209.489 155.452 211.633 163.604 212.155 171.99C212.333 174.815 212.333 177.651 212.122 180.52Z" fill="white"/>
<path d="M236.478 259.64C236.244 263.922 232.122 266.836 229.067 269.194C226.989 255.336 226.544 223.861 214.189 215.064C212.044 213.541 209.3 212.139 206.078 210.849C202.756 209.526 198.944 208.324 194.789 207.235C173.633 201.707 143.578 199.194 124.856 198.915C106.133 199.194 76.0666 201.707 54.9111 207.235C50.8778 208.291 47.1667 209.459 43.9222 210.727C40.5778 212.05 37.7222 213.496 35.5222 215.064C23.1667 223.861 22.7222 255.336 20.6444 269.194C17.5889 266.836 13.4667 263.922 13.2333 259.64C14.3667 242.324 14.4667 224.84 19.5111 208.08C22.9111 196.78 24.1222 193.432 35.1333 188.639C37.7555 187.493 40.7 186.426 43.9222 185.436C47.3 184.379 50.9778 183.423 54.9111 182.555C74.1444 178.262 99.4778 175.949 124.856 175.849C150.222 175.949 175.556 178.262 194.789 182.544C198.844 183.445 202.622 184.435 206.078 185.525C209.189 186.493 212.033 187.527 214.578 188.639C225.589 193.432 226.8 196.78 230.2 208.08C235.244 224.84 235.344 242.324 236.478 259.64Z" fill="white"/>
<path d="M218.611 247.929C218.611 247.929 218.589 248.007 218.578 248.04C217.4 252.344 209.211 263.766 206.078 270.617C205.144 272.641 204.656 274.254 204.911 275.188C205.078 275.789 205.544 276.289 206.078 276.778C206.256 276.956 206.444 277.123 206.633 277.301C207.4 277.991 208.122 278.769 208.144 279.904C208.167 280.671 207.322 282.362 206.078 284.375C206.044 284.43 206.011 284.475 205.978 284.53C204.911 286.243 203.556 288.189 202.211 289.969C199.978 292.938 197.767 295.441 196.911 295.741C196.289 295.963 195.567 295.797 194.789 295.607C193.9 295.396 192.956 295.151 192.033 295.396C190.356 295.83 172.322 318.618 169.9 322.01C167.811 324.913 167.678 327.705 165.822 330.385C163.167 334.222 157.922 336.613 153.322 337.103C147.2 337.759 136.011 338.137 124.856 338.159C113.7 338.137 102.511 337.759 96.3889 337.103C91.7889 336.613 86.5444 334.222 83.8889 330.385C82.0333 327.705 81.9 324.913 79.8111 322.01C77.3889 318.618 59.3556 295.83 57.6778 295.396C56.7556 295.151 55.8 295.407 54.9111 295.607C54.1445 295.797 53.4111 295.963 52.8 295.741C51.8111 295.396 48.9889 292.071 46.4111 288.512C45.5222 287.277 44.6556 286.021 43.9222 284.842C43.8556 284.742 43.7889 284.63 43.7333 284.53C42.4333 282.451 41.5445 280.693 41.5667 279.904C41.6 278.758 42.3222 277.991 43.0778 277.301C43.3667 277.023 43.6556 276.778 43.9222 276.512C44.3333 276.1 44.6667 275.677 44.8 275.188C45.0222 274.365 44.6667 272.986 43.9222 271.262C41.0333 264.5 32.3556 252.477 31.1222 248.029C31.1111 248.007 31.1111 247.984 31.1 247.951C30.5 245.671 30.8 240.944 31.4778 238.13C36.0333 243.369 40.0333 249.541 43.9222 255.38C44.7889 256.681 45.6445 257.994 46.4889 259.306C49.3445 263.722 52.1111 268.215 54.9111 272.686C59.5 280.004 64.1556 287.244 69.3778 293.984C71.9667 297.331 78.1778 305.194 83.1667 309.009C84.9778 310.399 87.2 311.133 89.4778 311.111L124.856 310.822L160.222 311.111C162.5 311.133 164.722 310.399 166.544 309.009C171.533 305.194 177.744 297.331 180.333 293.984C185.556 287.255 190.211 280.015 194.789 272.708C197.233 268.804 199.644 264.889 202.133 261.019C203.422 258.973 204.733 256.948 206.078 254.947C209.878 249.263 213.611 243.491 218.056 238.375C218.733 241.178 219.2 245.627 218.611 247.929Z" fill="white"/>
<path d="M189.267 230.409C188.745 232.566 149.567 243.911 146.911 243.577C137.733 242.443 138.844 225.304 128.456 223.491C127.256 223.28 126.144 223.191 125.133 223.213C124.122 223.191 123.011 223.28 121.811 223.491C111.422 225.304 112.533 242.443 103.356 243.577C100.7 243.911 61.5222 232.566 61 230.409L61.1667 212.025C82.2667 206.542 103.7 203.928 125.133 204.017C146.567 203.928 168 206.542 189.1 212.025L189.267 230.409Z" fill="#FF5220"/>
<path d="M53.0889 215.231V257.104L34.1556 231.402C35.6111 225.43 39.8333 221.504 43.9222 219.024C46.2889 217.589 48.6111 216.632 50.3222 216.054C51.9889 215.465 53.0889 215.231 53.0889 215.231Z" fill="white"/>
<path d="M36.6555 270.895L27.6111 270.906L28.7555 256.192L33 263.811L36.6555 270.895Z" fill="white"/>
<path d="M213.055 270.895L222.1 270.906L220.955 256.192L216.711 263.811L213.055 270.895Z" fill="white"/>
<path d="M215.544 231.402L206.078 244.259L201.867 249.964L196.611 257.104V215.231C196.611 215.231 201.3 216.232 206.078 219.213C210.067 221.693 214.122 225.574 215.544 231.402Z" fill="white"/>
<path d="M194.789 43.2338V121.408C183.678 107.573 168.322 96.8738 151.867 91.7355C142.878 88.9218 133.778 87.6428 124.855 87.7429C115.933 87.6428 106.833 88.9218 97.8444 91.7355C81.3888 96.8738 66.0222 107.584 54.9111 121.431V43.2338H94.5333L124.855 73.5516L155.167 43.2338H194.789Z" fill="#FF5220"/>
<path d="M194.789 303.449V338.037L124.855 408.015L54.9111 338.037V303.449C55.8 303.249 56.7555 302.993 57.6777 303.238C59.3555 303.671 77.3888 326.46 79.8111 329.852C81.8999 332.755 82.0333 335.546 83.8888 338.226C86.5444 342.063 91.7888 344.455 96.3888 344.944C102.511 345.6 113.7 345.978 124.855 346C136.011 345.978 147.2 345.6 153.322 344.944C157.922 344.455 163.167 342.063 165.822 338.226C167.678 335.546 167.811 332.755 169.9 329.852C172.322 326.46 190.355 303.671 192.033 303.238C192.955 302.993 193.9 303.237 194.789 303.449Z" fill="#FF5220"/>
<path d="M250 60.6504V283.863L206.078 327.816V296.419C215.589 288.378 240.956 266.146 241.167 262.354C239.989 244.314 239.878 220.625 234.622 203.164C231.3 192.109 229.989 188.35 220.333 183.801C220.522 180.887 220.511 178.007 220.322 175.137C219.756 165.973 217.411 157.053 213.678 148.69C211.567 143.952 209.011 139.37 206.078 135.032V60.6504H250Z" fill="#FF5220"/>
<path d="M43.9222 60.6504V134.599C41 138.847 38.4445 143.329 36.3334 147.978C32.4222 156.553 29.9667 165.717 29.3778 175.137C29.1889 178.007 29.1778 180.898 29.3667 183.812C19.7222 188.35 18.4 192.109 15.0889 203.164C9.83334 220.625 9.72223 242.913 8.54445 260.952C8.77778 265.279 21.9 276.912 43.9222 293.283V327.816L0 283.863V60.6504H43.9222Z" fill="#FF5220"/>
<path d="M124.86 -0.00012207L94.5457 30.3217L124.839 60.6646L155.153 30.3428L124.86 -0.00012207Z" fill="#FF5220"/>
<path d="M477.928 302.128C454.547 302.128 433.981 297.946 416.232 289.584C398.653 281.05 385.085 269.53 375.528 255.024C365.971 240.346 361.192 224.133 361.192 206.384C361.192 188.293 365.971 172.165 375.528 158C385.085 143.664 398.653 132.57 416.232 124.72C433.981 116.698 454.632 112.688 478.184 112.688C501.565 112.688 522.045 116.698 539.624 124.72C557.203 132.741 570.771 143.834 580.328 158C589.885 172.165 594.664 188.293 594.664 206.384C594.664 224.304 589.8 240.517 580.072 255.024C570.515 269.53 556.861 281.05 539.112 289.584C521.533 297.946 501.139 302.128 477.928 302.128ZM477.928 250.16C492.435 250.16 504.04 246.234 512.744 238.384C521.448 230.362 525.8 219.866 525.8 206.896C525.8 194.096 521.448 183.856 512.744 176.176C504.04 168.496 492.435 164.656 477.928 164.656C463.251 164.656 451.56 168.496 442.856 176.176C434.152 183.856 429.8 194.096 429.8 206.896C429.8 219.866 434.152 230.362 442.856 238.384C451.56 246.234 463.251 250.16 477.928 250.16Z" fill="white"/>
<path d="M632.446 117.808H734.078L760.19 215.856L788.094 117.808H886.91V297.008H825.214V171.312L789.63 297.008H725.374L691.582 170.032V297.008H632.446V117.808Z" fill="white"/>
<path d="M1100.41 251.44V297.008H933.496V117.808H1099.64V163.376H997.496V184.624H1094.52V228.144H997.496V251.44H1100.41Z" fill="white"/>
<path d="M1184.02 203.824L1126.16 117.808H1200.15L1230.1 168.496L1261.59 117.808H1337.62L1278.74 203.824L1338.9 297.008H1262.61L1229.59 241.2L1196.82 297.008H1124.88L1184.02 203.824Z" fill="white"/>
</svg>
