<svg width="118" height="26" viewBox="0 0 118 26" fill="none" xmlns="http://www.w3.org/2000/svg">
<path d="M7.71451 0.0893019C6.35646 0.153384 5.4291 0.370095 4.6183 0.68868C3.77921 1.01566 3.06801 1.45456 2.36046 2.16476C1.65281 2.87487 1.21702 3.58653 0.892318 4.4269C0.578115 5.23943 0.365238 6.1677 0.305263 7.52648C0.245198 8.88526 0.231962 9.32197 0.238625 12.7881C0.245198 16.2542 0.260534 16.6887 0.326442 18.0503C0.391254 19.4081 0.607235 20.3352 0.92582 21.1462C1.25326 21.9853 1.69161 22.6962 2.40199 23.4042C3.11246 24.112 3.82367 24.5468 4.66604 24.8719C5.47784 25.1857 6.40621 25.3997 7.76481 25.4591C9.12341 25.5185 9.56066 25.5324 13.0258 25.5257C16.4908 25.5191 16.9271 25.5037 18.2884 25.4392C19.6498 25.3746 20.5721 25.1571 21.3834 24.8401C22.2225 24.5118 22.9339 24.0742 23.6412 23.3635C24.3486 22.6529 24.7841 21.9407 25.1085 21.0998C25.4231 20.2881 25.6367 19.3596 25.6957 18.0021C25.7552 16.6397 25.7692 16.2047 25.7626 12.739C25.7559 9.27341 25.7404 8.83898 25.6758 7.47792C25.6112 6.11686 25.395 5.19251 25.0767 4.38098C24.7486 3.54189 24.3109 2.83142 23.6007 2.12304C22.8905 1.41467 22.1778 0.979423 21.3372 0.655726C20.5249 0.341614 19.597 0.127368 18.2384 0.0686715C16.8798 0.00997512 16.4426 -0.00526949 12.9762 0.00148561C9.50981 0.00824071 9.07584 0.0229376 7.71451 0.0893019ZM7.86358 23.1629C6.61918 23.1088 5.9434 22.902 5.49309 22.7289C4.89681 22.4992 4.47206 22.2215 4.02331 21.777C3.57455 21.3325 3.29878 20.9063 3.066 20.3112C2.89119 19.8609 2.6805 19.186 2.62235 17.9416C2.559 16.5965 2.54567 16.1926 2.53837 12.7851C2.53098 9.37738 2.54394 8.97408 2.60291 7.62854C2.65604 6.38515 2.86408 5.70863 3.03688 5.2586C3.26664 4.66159 3.54333 4.23748 3.9888 3.7889C4.43427 3.34051 4.85929 3.06428 5.45484 2.83142C5.9046 2.65587 6.57956 2.44701 7.8235 2.38777C9.16959 2.32396 9.57289 2.31118 12.98 2.30379C16.3871 2.29639 16.7915 2.30917 18.1381 2.36842C19.3815 2.42255 20.0583 2.62858 20.5078 2.80239C21.1043 3.03215 21.5289 3.30811 21.9774 3.75431C22.4258 4.20051 22.7023 4.62398 22.9352 5.2208C23.111 5.66929 23.3199 6.34398 23.3786 7.58874C23.4427 8.93474 23.4572 9.33831 23.4633 12.7453C23.4694 16.1522 23.4574 16.5567 23.3985 17.9018C23.3441 19.1462 23.1379 19.8221 22.9645 20.273C22.7347 20.869 22.4578 21.294 22.0121 21.7423C21.5664 22.1906 21.1419 22.4668 20.5461 22.6996C20.0968 22.875 19.4211 23.0843 18.1782 23.1435C16.8321 23.2068 16.4288 23.2201 13.0204 23.2275C9.61196 23.2349 9.20958 23.2211 7.86358 23.1629ZM18.2688 5.94196C18.2676 6.14406 18.3064 6.34439 18.383 6.53143C18.4596 6.71846 18.5724 6.88848 18.715 7.0317C18.8576 7.17492 19.0272 7.2885 19.2139 7.36589C19.4006 7.44328 19.6007 7.48296 19.8028 7.48264C20.0049 7.48231 20.205 7.44199 20.3914 7.36399C20.5779 7.286 20.747 7.17188 20.8892 7.0282C21.0313 6.88452 21.1436 6.71414 21.2196 6.52686C21.2956 6.33958 21.3337 6.13912 21.3319 5.93703C21.3282 5.53285 21.1648 5.14652 20.8775 4.86225C20.5902 4.57798 20.2021 4.41883 19.7979 4.41948C19.3937 4.42013 19.0061 4.58053 18.7197 4.86572C18.4333 5.15091 18.2712 5.53777 18.2688 5.94196ZM6.44711 12.7765C6.45423 16.3962 9.39397 19.324 13.013 19.3171C16.632 19.3102 19.5618 16.3707 19.5548 12.7509C19.548 9.13118 16.6074 6.20267 12.988 6.20988C9.36841 6.217 6.44017 9.1572 6.44711 12.7765ZM8.74603 12.7718C8.74483 12.1427 8.88314 11.5212 9.15101 10.952C9.41887 10.3828 9.80964 9.88002 10.2951 9.47997C10.7807 9.07992 11.3488 8.79251 11.9588 8.63844C12.5687 8.48436 13.2052 8.46746 13.8225 8.58895C14.8589 8.79278 15.7825 9.37489 16.4135 10.222C17.0445 11.0691 17.3378 12.1207 17.2364 13.1722C17.1349 14.2236 16.646 15.1997 15.8646 15.9105C15.0833 16.6214 14.0654 17.0161 13.0091 17.018C12.4504 17.0192 11.8969 16.9103 11.3802 16.6976C10.8636 16.4848 10.3939 16.1723 9.99801 15.778C9.60211 15.3837 9.28778 14.9153 9.07296 14.3995C8.85815 13.8837 8.74706 13.3306 8.74603 12.7718Z" fill="url(#paint0_linear_767_8566)"/>
<path d="M41.2263 3.3881C39.5902 4.07329 37.7894 6.00944 37.2208 8.43954C36.5009 11.5186 39.4966 12.8208 39.7423 12.3937C40.0315 11.892 39.2056 11.7224 39.0353 10.1248C38.8156 8.06153 39.7748 5.75576 40.9822 4.74423C41.2065 4.55637 41.1959 4.81799 41.1959 5.30171L41.1481 15.5558C41.1481 17.7494 41.0575 18.4423 40.8948 19.1267C40.7299 19.8202 40.4648 20.2891 40.6658 20.4695C40.8901 20.6715 41.8484 20.191 42.4028 19.4169C43.068 18.4884 43.3007 17.3734 43.3426 16.1624C43.3931 14.7028 43.3911 12.3865 43.3931 11.0652L43.3729 4.17224C43.3628 3.64917 41.911 3.10119 41.2263 3.3881ZM99.3626 13.6536C99.3096 14.794 99.0577 15.6853 98.7446 16.3141C98.1375 17.5313 96.8796 17.9092 96.3447 16.1595C96.0535 15.2058 96.0398 13.6129 96.2497 12.2818C96.4615 10.926 97.0576 9.90184 98.0435 9.99422C99.0148 10.0856 99.4703 11.3378 99.3626 13.6536ZM82.977 20.7293C82.9638 22.6241 82.6656 24.2855 82.0261 24.7691C81.1191 25.4533 79.8999 24.9401 80.1524 23.5573C80.3758 22.3338 81.4321 21.0842 82.9796 19.5574L82.977 20.7293ZM82.7292 13.6428C82.6737 14.6814 82.4045 15.725 82.1108 16.3146C81.5044 17.5318 80.2367 17.9124 79.7112 16.1601C79.352 14.9628 79.438 13.4132 79.6158 12.4368C79.8465 11.1701 80.4056 9.99477 81.4095 9.99477C82.3856 9.99477 82.8668 11.0655 82.7292 13.6428ZM73.2373 13.627C73.1777 14.727 72.9633 15.6467 72.6188 16.3145C71.9956 17.5234 70.763 17.9067 70.2193 16.16C69.8275 14.9003 69.9608 13.1829 70.1239 12.2552C70.3659 10.8784 70.9717 9.9023 71.9176 9.99486C72.8892 10.0898 73.3614 11.3382 73.2373 13.627ZM116.737 14.9118C116.499 14.9118 116.391 15.1567 116.301 15.5687C115.99 17.0015 115.663 17.3261 115.241 17.3261C114.77 17.3261 114.347 16.6166 114.238 15.1964C114.153 14.0797 114.166 12.0237 114.276 9.97861C114.298 9.55842 114.182 9.14262 113.055 8.7333C112.57 8.55721 111.865 8.29805 111.514 9.14518C110.522 11.5388 110.134 13.4392 110.043 14.2111C110.038 14.2511 109.989 14.2592 109.981 14.1659C109.922 13.5476 109.793 12.424 109.776 10.0632C109.774 9.6027 109.676 9.21063 109.167 8.88967C108.837 8.68145 107.836 8.31302 107.475 8.75128C107.163 9.10985 106.8 10.0744 106.424 11.2176L105.906 12.7755L105.914 9.31707C105.916 8.95822 105.669 8.83873 105.595 8.81719C105.261 8.72015 104.603 8.55821 104.323 8.55821C103.978 8.55821 103.894 8.75092 103.894 9.03153L103.839 14.6153L103.84 14.9375C103.649 15.9866 103.031 17.4109 102.359 17.4109C101.686 17.4109 101.369 16.8155 101.369 14.0942C101.369 12.5068 101.416 11.8165 101.44 10.6685L101.479 9.38398C101.473 9.03043 100.862 8.85243 100.578 8.78652C100.292 8.72015 100.044 8.69441 99.85 8.70546C99.5762 8.72088 99.3817 8.90099 99.3817 9.14855L99.3826 9.53369C99.0294 8.97822 98.4616 8.5919 98.0827 8.47989C97.064 8.17737 96.0014 8.44557 95.2 9.56728C94.5619 10.4587 94.1785 11.4683 94.0279 12.9189C93.9174 13.9794 93.9539 15.0548 94.1502 15.9643C93.9128 16.9903 93.4719 17.4109 92.9899 17.4109C92.2889 17.4109 91.7813 16.2676 91.8407 14.2901C91.879 12.9895 92.1392 12.0767 92.424 10.7563C92.5454 10.1933 92.4468 9.89864 92.1994 9.61621C91.973 9.35714 91.4901 9.22487 90.7954 9.38772C90.3008 9.50384 89.5936 9.62853 88.9466 9.72438C88.9466 9.72438 88.9856 9.56865 89.0177 9.29397C89.1859 7.85377 87.6208 7.97052 87.1214 8.43041C86.8234 8.70518 86.6205 9.02906 86.5435 9.61146C86.4212 10.5358 87.1752 10.9717 87.1752 10.9717C86.9277 12.1028 86.3216 13.5828 85.6955 14.652C85.3602 15.2249 85.1037 15.6494 84.7728 16.1006L84.7701 15.5974L84.8082 10.6688L84.8468 9.39785C84.8431 9.13933 84.692 9.04175 84.3782 8.91815C84.1004 8.80888 83.7722 8.73312 83.4318 8.70674C83.0021 8.67323 82.7431 8.90117 82.7499 9.17074C82.7512 9.22167 82.7512 9.53414 82.7512 9.53414C82.3978 8.97867 81.8293 8.59226 81.4512 8.48026C80.4326 8.17792 79.3697 8.44593 78.5678 9.56764C77.9307 10.459 77.5134 11.71 77.3963 12.9082C77.2852 14.025 77.3063 14.9741 77.4565 15.7735C77.2946 16.574 76.8288 17.4112 76.3024 17.4112C75.6292 17.4112 75.2461 16.8159 75.2461 14.0945C75.2461 12.507 75.2938 11.8167 75.3172 10.6687L75.3556 9.38425C75.3506 9.0308 74.7395 8.8527 74.4551 8.78679C74.1576 8.71805 73.8997 8.69259 73.7034 8.70719C73.4431 8.72654 73.26 8.95969 73.26 9.1334V9.53396C72.9066 8.9784 72.3382 8.59208 71.96 8.48007C70.9414 8.17765 69.8844 8.45004 69.0766 9.56746C68.5499 10.2961 68.1235 11.1039 67.9051 12.8922C67.8416 13.409 67.8136 13.8929 67.8172 14.3452C67.6071 15.6297 66.6796 17.1102 65.9207 17.1102C65.4766 17.1102 65.0537 16.2488 65.0537 14.4133C65.0537 11.9683 65.205 8.48719 65.2307 8.15163L66.3749 8.13319C66.8532 8.1279 67.2863 8.13922 67.9232 8.10663C68.2426 8.09038 68.5504 6.94365 68.2207 6.80171C68.0713 6.73744 67.015 6.68121 66.5963 6.67245C66.2442 6.66432 65.2642 6.59193 65.2642 6.59193L65.3725 4.03723C65.39 3.83384 65.1267 3.72923 64.9756 3.66561C64.6087 3.51042 64.2803 3.43602 63.891 3.35588C63.3532 3.24496 63.1092 3.35341 63.0616 3.80728C62.9909 4.49612 62.9525 6.51361 62.9525 6.51361C62.5579 6.51361 61.2099 6.43638 60.8152 6.43638C60.4486 6.43638 60.0527 8.0137 60.5597 8.03314L62.8337 8.09576L62.805 13.0634C62.434 14.9968 61.1274 16.0412 61.1274 16.0412C61.4079 14.7621 60.8348 13.8017 59.8023 12.9886C59.422 12.689 58.6712 12.1217 57.8309 11.5002C57.8309 11.5002 58.3175 11.0207 58.75 10.0559C59.0557 9.37257 59.0689 8.59053 58.3185 8.41809C57.0785 8.13292 56.0562 9.04349 55.7512 10.0158C55.5148 10.7689 55.6409 11.3277 56.1036 11.9085C56.1375 11.9508 56.1741 11.9943 56.2119 12.0377C55.932 12.5772 55.5473 13.3036 55.2219 13.8667C54.3179 15.4307 53.635 16.6677 53.1192 16.6677C52.7065 16.6677 52.7121 15.4118 52.7121 14.2359C52.7121 13.2222 52.7869 11.6981 52.8468 10.1203C52.8666 9.5985 52.6056 9.30118 52.1681 9.03189C51.9024 8.86822 51.3351 8.54671 51.0066 8.54671C50.5148 8.54671 49.0963 8.61353 47.7559 12.491C47.5869 12.9798 47.2549 13.8702 47.2549 13.8702L47.2835 9.20752C47.2835 9.09826 47.2253 8.99237 47.0919 8.92016C46.866 8.79756 46.2637 8.5468 45.7264 8.5468C45.471 8.54692 45.3432 8.66547 45.3432 8.90245L45.2965 16.1974C45.2965 16.7517 45.3109 17.3993 45.3658 17.6811C45.4206 17.9629 45.5088 18.1945 45.6183 18.3315C45.7277 18.4684 45.8542 18.5726 46.0628 18.6156C46.2571 18.6556 47.3203 18.7922 47.3756 18.3859C47.4419 17.8991 47.4442 17.3722 48.0028 15.408C48.8719 12.3498 50.0052 10.8576 50.538 10.3277C50.6311 10.235 50.7374 10.2295 50.7324 10.3812L50.5759 14.1503C50.4314 17.9594 51.1245 18.6655 52.1147 18.6655C52.8722 18.6655 53.9403 17.9127 55.084 16.0073L56.9886 12.8163L58.114 13.8525C59.0182 14.7106 59.315 15.5262 59.1181 16.2996C58.9674 16.8911 58.4 17.5015 57.3904 16.9082C57.0961 16.7354 56.9704 16.6018 56.6745 16.4069C56.5155 16.3023 56.2727 16.271 56.1271 16.3806C55.7491 16.6656 55.5328 17.0282 55.4093 17.4771C55.2891 17.9139 55.7266 18.1447 56.1801 18.3457C56.5706 18.5194 57.4097 18.677 57.9449 18.695C60.0302 18.7656 61.7006 17.688 62.8634 14.9111C63.0715 17.3094 63.9575 18.6666 65.4966 18.6666C66.5257 18.6666 67.5573 17.3365 68.0084 16.028C68.1378 16.5612 68.3295 17.0252 68.5772 17.4173C69.7632 19.2964 72.0639 18.8919 73.2197 17.2964C73.577 16.8033 73.6314 16.6262 73.6314 16.6262C73.8001 18.1328 75.0133 18.6592 75.7078 18.6592C76.486 18.6592 77.2893 18.2914 77.8523 17.0238C77.9183 17.1614 77.9902 17.2927 78.0689 17.4173C79.255 19.2964 81.5557 18.8918 82.7114 17.2963C82.7603 17.2292 82.808 17.1613 82.8545 17.0926L82.8885 18.0824L81.8245 19.0581C80.0432 20.6923 78.6888 21.9322 78.5892 23.376C78.4614 25.2172 79.9543 25.9012 81.084 25.9908C82.2837 26.0861 83.311 25.4232 83.9422 24.496C84.4977 23.6798 84.861 21.9229 84.8343 20.1878L84.7924 17.6624C85.4187 16.9353 86.1239 16.0166 86.7734 14.941C87.4812 13.7688 88.2398 12.1946 88.6281 10.9696C88.6281 10.9696 89.287 10.9753 89.9905 10.9292C90.2155 10.9146 90.2801 10.9605 90.2386 11.1253C90.1884 11.3246 89.35 14.5582 90.115 16.7124C90.6388 18.187 91.8197 18.6616 92.5189 18.6616C93.3387 18.6616 94.1228 18.0428 94.5427 17.124C94.5929 17.2264 94.6459 17.3255 94.7034 17.4171C95.8901 19.2962 98.1822 18.8893 99.3461 17.296C99.609 16.9365 99.7578 16.6258 99.7578 16.6258C100.008 18.1852 101.22 18.6669 101.915 18.6669C102.639 18.6669 103.325 18.3704 103.882 17.052C103.906 17.6325 103.942 18.1071 104 18.2566C104.035 18.3482 104.241 18.463 104.391 18.5185C105.052 18.764 105.728 18.6478 105.976 18.5973C106.15 18.5622 106.285 18.4236 106.302 18.065C106.351 17.124 106.321 15.5428 106.605 14.3676C107.084 12.3955 107.531 11.6306 107.743 11.2519C107.861 11.0398 107.995 11.0047 108 11.2292C108.01 11.6837 108.033 13.0179 108.218 14.8109C108.355 16.1294 108.537 16.9087 108.676 17.1554C109.076 17.8607 109.569 17.8941 109.969 17.8941C110.225 17.8941 110.759 17.8235 110.711 17.3747C110.687 17.156 110.728 15.8039 111.2 13.8609C111.509 12.5921 112.023 11.4457 112.208 11.0266C112.277 10.872 112.309 10.9938 112.308 11.0174C112.268 11.8913 112.181 14.7493 112.537 16.3123C113.019 18.43 114.415 18.6669 114.901 18.6669C115.94 18.6669 116.789 17.8771 117.076 15.7986C117.144 15.2983 117.043 14.9118 116.737 14.9118Z" fill="url(#paint1_linear_767_8566)"/>
<defs>
<linearGradient id="paint0_linear_767_8566" x1="13.0006" y1="2.50469e-05" x2="13.0006" y2="25.5273" gradientUnits="userSpaceOnUse">
<stop stop-color="white"/>
<stop offset="1" stop-color="#D3D3D3"/>
</linearGradient>
<linearGradient id="paint1_linear_767_8566" x1="77.1027" y1="3.30905" x2="77.1027" y2="25.9999" gradientUnits="userSpaceOnUse">
<stop stop-color="white"/>
<stop offset="1" stop-color="#D3D3D3"/>
</linearGradient>
</defs>
</svg>
