<svg width="48" height="48" viewBox="0 0 48 48" fill="none" xmlns="http://www.w3.org/2000/svg">
<g clip-path="url(#clip0_767_8434)">
<path d="M33.6084 20.6749C33.6084 20.6906 33.6071 20.7076 33.6058 20.7233C33.3738 20.6539 33.1405 20.5872 32.9072 20.5244C32.4716 20.404 32.0359 20.2928 31.5977 20.1907C31.3025 20.1214 31.0087 20.056 30.7122 19.9958C30.564 19.9644 30.4171 19.9356 30.2689 19.9068C30.1258 19.8793 29.9827 19.8532 29.8397 19.827C29.8345 19.8257 29.8293 19.8257 29.8242 19.8244C29.8216 19.8231 29.8203 19.8231 29.819 19.8231C29.7069 19.8021 29.5935 19.7825 29.4813 19.7642C29.3331 19.738 29.1862 19.7145 29.0393 19.6922C28.8936 19.6687 28.7467 19.6464 28.601 19.6255C28.4709 19.6059 28.3407 19.5889 28.2118 19.5719C28.1396 19.5614 28.0687 19.5522 27.9965 19.5431C27.9128 19.5326 27.8277 19.5221 27.7439 19.513C27.6576 19.5025 27.5699 19.492 27.4836 19.4829C27.2232 19.4528 26.9629 19.4266 26.7025 19.4044C26.5955 19.3952 26.4885 19.3861 26.3829 19.3782C26.2656 19.3677 26.1496 19.3586 26.0323 19.3507C25.8841 19.3403 25.7358 19.3311 25.5863 19.3233C25.2757 19.3049 24.9651 19.2919 24.6532 19.2827C24.5874 19.2801 24.5217 19.2788 24.456 19.2775C24.1325 19.2683 23.8089 19.2644 23.4854 19.2657C23.1632 19.2644 22.841 19.2683 22.5188 19.2775C22.4505 19.2788 22.3821 19.2801 22.3138 19.2827C22.0032 19.2919 21.6939 19.3049 21.3845 19.3233C21.2337 19.3311 21.0842 19.3403 20.9334 19.352C20.8213 19.3586 20.7105 19.3677 20.5983 19.3769C20.4875 19.3848 20.3779 19.3939 20.2684 19.4044C20.008 19.4266 19.7477 19.4528 19.4873 19.4829C19.3997 19.492 19.312 19.5025 19.2244 19.513C19.1354 19.5234 19.0465 19.5339 18.9576 19.5457C18.7617 19.5705 18.5658 19.5967 18.3686 19.6255C18.2216 19.6464 18.0747 19.6687 17.9278 19.6922C17.7795 19.7145 17.6313 19.7393 17.4831 19.7642C17.3722 19.7838 17.2614 19.8034 17.1506 19.8231C17.1493 19.8231 17.148 19.8244 17.1454 19.8244C17.1402 19.8257 17.1351 19.8257 17.1299 19.827C16.9869 19.8519 16.8438 19.8793 16.7007 19.9068C16.5525 19.9356 16.4056 19.9644 16.2574 19.9958C15.9622 20.056 15.6658 20.1214 15.3719 20.1907C14.9453 20.2902 14.5212 20.3988 14.0972 20.5152C13.8523 20.5807 13.6087 20.6513 13.3651 20.7233C13.3638 20.7076 13.3625 20.6906 13.3625 20.6749C13.338 20.3373 13.338 20.0036 13.3586 19.6713C13.4218 18.6573 13.6822 17.672 14.0972 16.7496C14.4297 16.009 14.8628 15.309 15.3719 14.6665C16.6608 13.0375 18.4433 11.7775 20.3521 11.173C21.3949 10.842 22.4505 10.6915 23.4854 10.7033C24.5204 10.6915 25.576 10.842 26.6187 11.173C28.5276 11.7775 30.3088 13.0362 31.5977 14.6639C32.1249 15.3286 32.5695 16.0561 32.9072 16.8255C33.3029 17.7257 33.5517 18.6847 33.6122 19.6713C33.6329 20.0036 33.6329 20.3373 33.6084 20.6749Z" fill="#E8E8E8"/>
<path d="M36.4314 30.544C36.4043 31.0478 35.9261 31.3906 35.5717 31.668C35.3307 30.0377 35.2791 26.3348 33.8459 25.2998C33.5971 25.1206 33.2788 24.9557 32.905 24.8039C32.5196 24.6482 32.0775 24.5069 31.5955 24.3787C29.1414 23.7284 25.655 23.4327 23.4832 23.4C21.3114 23.4327 17.8237 23.7284 15.3697 24.3787C14.9018 24.503 14.4713 24.6404 14.0949 24.7895C13.707 24.9452 13.3757 25.1153 13.1205 25.2998C11.6873 26.3348 11.6357 30.0377 11.3947 31.668C11.0403 31.3906 10.5621 31.0478 10.535 30.544C10.6665 28.5068 10.6781 26.4499 11.2633 24.4781C11.6577 23.1488 11.7981 22.7549 13.0754 22.191C13.3796 22.0562 13.7212 21.9306 14.0949 21.8142C14.4868 21.6898 14.9134 21.5773 15.3697 21.4753C17.6007 20.9702 20.5394 20.6981 23.4832 20.6863C26.4257 20.6981 29.3644 20.9702 31.5955 21.474C32.0659 21.5799 32.5041 21.6964 32.905 21.8246C33.2659 21.9385 33.5958 22.0601 33.891 22.191C35.1683 22.7549 35.3088 23.1488 35.7032 24.4781C36.2883 26.4499 36.2999 28.5068 36.4314 30.544Z" fill="#E8E8E8"/>
<path d="M34.3588 29.1664C34.3588 29.1664 34.3562 29.1756 34.3549 29.1795C34.2183 29.6859 33.2684 31.0296 32.9049 31.8356C32.7967 32.0737 32.74 32.2635 32.7696 32.3734C32.7889 32.444 32.8431 32.5029 32.9049 32.5605C32.9256 32.5814 32.9475 32.601 32.9694 32.622C33.0583 32.7031 33.1421 32.7947 33.1447 32.9282C33.1473 33.0184 33.0493 33.2173 32.9049 33.4541C32.9011 33.4607 32.8972 33.4659 32.8933 33.4725C32.7696 33.674 32.6124 33.9029 32.4564 34.1123C32.1973 34.4616 31.9409 34.756 31.8416 34.7914C31.7694 34.8175 31.6856 34.7979 31.5954 34.7757C31.4923 34.7508 31.3828 34.722 31.2758 34.7508C31.0812 34.8018 28.9893 37.4828 28.7083 37.8819C28.466 38.2234 28.4505 38.5518 28.2353 38.8671C27.9273 39.3186 27.3189 39.5999 26.7853 39.6574C26.0751 39.7346 24.7772 39.7791 23.4832 39.7817C22.1891 39.7791 20.8912 39.7346 20.181 39.6574C19.6474 39.5999 19.0391 39.3186 18.731 38.8671C18.5158 38.5518 18.5003 38.2234 18.258 37.8819C17.977 37.4828 15.8852 34.8018 15.6905 34.7508C15.5836 34.722 15.4727 34.7521 15.3696 34.7757C15.2807 34.7979 15.1956 34.8175 15.1247 34.7914C15.01 34.7508 14.6826 34.3596 14.3836 33.9409C14.2805 33.7957 14.18 33.6478 14.0949 33.5091C14.0872 33.4973 14.0794 33.4842 14.073 33.4725C13.9222 33.2278 13.8191 33.0211 13.8217 32.9282C13.8255 32.7934 13.9093 32.7031 13.9969 32.622C14.0305 32.5893 14.064 32.5605 14.0949 32.5291C14.1426 32.4807 14.1813 32.431 14.1967 32.3734C14.2225 32.2766 14.1813 32.1143 14.0949 31.9115C13.7598 31.116 12.7532 29.7016 12.6101 29.1782C12.6088 29.1756 12.6088 29.1729 12.6075 29.169C12.5379 28.9008 12.5727 28.3447 12.6513 28.0137C13.1798 28.6299 13.6438 29.3561 14.0949 30.0431C14.1954 30.1961 14.2947 30.3505 14.3926 30.5049C14.7239 31.0244 15.0448 31.553 15.3696 32.079C15.9019 32.9399 16.442 33.7917 17.0477 34.5846C17.3481 34.9785 18.0685 35.9035 18.6473 36.3523C18.8573 36.5159 19.1151 36.6022 19.3793 36.5996L23.4832 36.5656L27.5857 36.5996C27.8499 36.6022 28.1077 36.5159 28.3191 36.3523C28.8978 35.9035 29.6183 34.9785 29.9186 34.5846C30.5244 33.793 31.0644 32.9412 31.5954 32.0816C31.879 31.6223 32.1587 31.1618 32.4474 30.7064C32.5969 30.4657 32.749 30.2275 32.9049 29.992C33.3457 29.3234 33.7788 28.6443 34.2944 28.0425C34.373 28.3722 34.4271 28.8956 34.3588 29.1664Z" fill="#E8E8E8"/>
<path d="M30.9226 27.32C30.8621 27.5739 26.3174 28.9085 26.0094 28.8692C24.9448 28.7357 25.0737 26.7194 23.8686 26.5062C23.7294 26.4813 23.6005 26.4708 23.4832 26.4735C23.3659 26.4708 23.237 26.4813 23.0978 26.5062C21.8927 26.7194 22.0216 28.7357 20.9569 28.8692C20.6489 28.9085 16.1043 27.5739 16.0437 27.32L16.063 25.1572C18.5106 24.5121 20.9969 24.2046 23.4832 24.2151C25.9694 24.2046 28.4557 24.5121 30.9033 25.1572L30.9226 27.32Z" fill="#FF5220"/>
<path d="M15.1583 25.3196V30.2458L14.4391 29.2554L14.095 28.7817L12.962 27.222C13.1309 26.5194 13.6207 26.0575 14.095 25.7658C14.3695 25.597 14.6389 25.4844 14.8374 25.4164C15.0307 25.3471 15.1583 25.3196 15.1583 25.3196Z" fill="#E8E8E8"/>
<path d="M13.252 31.8682L12.2029 31.8695L12.3356 30.1384L12.828 31.0347L13.252 31.8682Z" fill="#E8E8E8"/>
<path d="M33.7144 31.8682L34.7635 31.8695L34.6308 30.1384L34.1384 31.0347L33.7144 31.8682Z" fill="#E8E8E8"/>
<path d="M34.0032 27.222L32.905 28.7346L32.4165 29.4058L31.8069 30.2458V25.3196C31.8069 25.3196 32.3508 25.4373 32.905 25.788C33.3677 26.0798 33.8382 26.5364 34.0032 27.222Z" fill="#E8E8E8"/>
<path d="M31.5954 5.08472V14.2817C30.3066 12.654 28.5253 11.3953 26.6165 10.7908C25.5738 10.4598 24.5182 10.3093 23.4832 10.3211C22.4482 10.3093 21.3926 10.4598 20.3499 10.7908C18.441 11.3953 16.6585 12.6553 15.3696 14.2843V5.08472H19.9658L23.4832 8.65151L26.9993 5.08472H31.5954Z" fill="#FF5220"/>
<path d="M31.5954 35.6983V39.7675L23.4832 48.0002L15.3696 39.7675V35.6983C15.4727 35.6747 15.5836 35.6446 15.6906 35.6734C15.8852 35.7244 17.9771 38.4054 18.258 38.8045C18.5003 39.146 18.5158 39.4744 18.7311 39.7897C19.0391 40.2412 19.6474 40.5225 20.181 40.58C20.8912 40.6572 22.1891 40.7017 23.4832 40.7043C24.7772 40.7017 26.0751 40.6572 26.7853 40.58C27.3189 40.5225 27.9273 40.2412 28.2353 39.7897C28.4506 39.4744 28.466 39.146 28.7083 38.8045C28.9893 38.4054 31.0812 35.7244 31.2758 35.6734C31.3828 35.6446 31.4923 35.6734 31.5954 35.6983Z" fill="#FF5220"/>
<path d="M38 7.13379V33.3941L32.905 38.565V34.8713C34.0083 33.9253 36.9509 31.3098 36.9753 30.8636C36.8387 28.7413 36.8258 25.9543 36.2162 23.9001C35.8308 22.5995 35.6787 22.1573 34.5587 21.6221C34.5806 21.2793 34.5793 20.9404 34.5574 20.6028C34.4917 19.5247 34.2197 18.4753 33.7866 17.4914C33.5417 16.934 33.2453 16.3949 32.905 15.8846V7.13379H38Z" fill="#FF5220"/>
<path d="M14.095 7.13379V15.8336C13.756 16.3334 13.4596 16.8607 13.2147 17.4076C12.761 18.4164 12.4761 19.4946 12.4078 20.6028C12.3859 20.9404 12.3846 21.2806 12.4065 21.6234C11.2878 22.1573 11.1344 22.5995 10.7503 23.9001C10.1407 25.9543 10.1278 28.5764 9.99116 30.6987C10.0182 31.2077 11.5404 32.5763 14.095 34.5023V38.565L9 33.3941V7.13379H14.095Z" fill="#FF5220"/>
<path d="M23.4837 -0.00159317L19.9673 3.56567L23.4813 7.13543L26.9977 3.56817L23.4837 -0.00159317Z" fill="#FF5220"/>
</g>
<defs>
<clipPath id="clip0_767_8434">
<rect width="29" height="48" fill="white" transform="translate(9)"/>
</clipPath>
</defs>
</svg>
