<svg width="38" height="38" viewBox="0 0 38 38" fill="none" xmlns="http://www.w3.org/2000/svg">
<g clip-path="url(#clip0_628_1377)">
<path d="M27.1238 16.3676C27.1238 16.3801 27.1227 16.3935 27.1217 16.406C26.9352 16.3511 26.7477 16.2982 26.5603 16.2485C26.2101 16.1532 25.86 16.0652 25.5078 15.9844C25.2706 15.9295 25.0345 15.8777 24.7962 15.83C24.6771 15.8052 24.559 15.7824 24.4399 15.7596C24.3249 15.7379 24.2099 15.7171 24.0949 15.6964C24.0908 15.6954 24.0867 15.6954 24.0825 15.6943C24.0804 15.6933 24.0794 15.6933 24.0784 15.6933C23.9883 15.6767 23.8971 15.6612 23.807 15.6467C23.6879 15.626 23.5698 15.6073 23.4517 15.5897C23.3346 15.5711 23.2165 15.5535 23.0995 15.5369C22.9949 15.5214 22.8903 15.5079 22.7867 15.4944C22.7287 15.4861 22.6717 15.4789 22.6137 15.4716C22.5464 15.4634 22.478 15.4551 22.4107 15.4478C22.3413 15.4395 22.2708 15.4312 22.2014 15.424C21.9922 15.4002 21.7829 15.3794 21.5737 15.3618C21.4877 15.3546 21.4017 15.3473 21.3168 15.3411C21.2225 15.3328 21.1293 15.3256 21.0351 15.3194C20.9159 15.3111 20.7968 15.3038 20.6767 15.2976C20.427 15.2831 20.1774 15.2728 19.9267 15.2655C19.8739 15.2634 19.821 15.2624 19.7682 15.2614C19.5082 15.2541 19.2482 15.251 18.9882 15.252C18.7293 15.251 18.4703 15.2541 18.2113 15.2614C18.1564 15.2624 18.1015 15.2634 18.0466 15.2655C17.797 15.2728 17.5484 15.2831 17.2998 15.2976C17.1786 15.3038 17.0584 15.3111 16.9373 15.3204C16.8471 15.3256 16.7581 15.3328 16.6679 15.3401C16.5789 15.3463 16.4908 15.3536 16.4028 15.3618C16.1935 15.3794 15.9843 15.4002 15.775 15.424C15.7046 15.4312 15.6342 15.4395 15.5637 15.4478C15.4922 15.4561 15.4208 15.4644 15.3493 15.4737C15.1919 15.4934 15.0344 15.5141 14.8759 15.5369C14.7578 15.5535 14.6397 15.5711 14.5217 15.5897C14.4025 15.6073 14.2834 15.627 14.1643 15.6467C14.0752 15.6622 13.9861 15.6778 13.897 15.6933C13.896 15.6933 13.895 15.6943 13.8929 15.6943C13.8888 15.6954 13.8846 15.6954 13.8805 15.6964C13.7655 15.7161 13.6505 15.7379 13.5355 15.7596C13.4164 15.7824 13.2983 15.8052 13.1792 15.83C12.942 15.8777 12.7038 15.9295 12.4676 15.9844C12.1247 16.0631 11.7839 16.1491 11.4431 16.2413C11.2463 16.2931 11.0505 16.349 10.8548 16.406C10.8537 16.3935 10.8527 16.3801 10.8527 16.3676C10.833 16.1004 10.833 15.8363 10.8496 15.5732C10.9003 14.7704 11.1096 13.9904 11.4431 13.2601C11.7104 12.6738 12.0584 12.1196 12.4676 11.611C13.5034 10.3214 14.936 9.3239 16.4701 8.84534C17.3081 8.58327 18.1564 8.46415 18.9882 8.47347C19.82 8.46415 20.6684 8.58327 21.5064 8.84534C23.0405 9.3239 24.472 10.3204 25.5078 11.609C25.9315 12.1352 26.2889 12.7111 26.5603 13.3202C26.8783 14.0329 27.0782 14.7921 27.1269 15.5732C27.1434 15.8363 27.1434 16.1004 27.1238 16.3676Z" fill="#E8E8E8"/>
<path d="M29.3925 24.1808C29.3708 24.5796 28.9865 24.851 28.7016 25.0706C28.5079 23.7799 28.4665 20.8485 27.3146 20.0291C27.1147 19.8872 26.8588 19.7567 26.5585 19.6365C26.2487 19.5132 25.8934 19.4014 25.506 19.2999C23.5338 18.7851 20.7318 18.5509 18.9864 18.5251C17.241 18.5509 14.438 18.7851 12.4658 19.2999C12.0898 19.3983 11.7438 19.507 11.4413 19.6251C11.1295 19.7484 10.8633 19.883 10.6582 20.0291C9.50637 20.8485 9.46493 23.7799 9.27123 25.0706C8.98637 24.851 8.60208 24.5796 8.58032 24.1808C8.68598 22.568 8.6953 20.9396 9.16557 19.3786C9.48254 18.3262 9.59545 18.0144 10.622 17.5679C10.8664 17.4612 11.1409 17.3618 11.4413 17.2696C11.7562 17.1712 12.0991 17.0821 12.4658 17.0013C14.2588 16.6015 16.6206 16.386 18.9864 16.3767C21.3513 16.386 23.713 16.6015 25.506 17.0003C25.8841 17.0842 26.2363 17.1764 26.5585 17.2779C26.8485 17.368 27.1137 17.4643 27.3509 17.5679C28.3774 18.0144 28.4903 18.3262 28.8073 19.3786C29.2775 20.9396 29.2869 22.568 29.3925 24.1808Z" fill="#E8E8E8"/>
<path d="M27.7269 23.09C27.7269 23.09 27.7248 23.0973 27.7237 23.1004C27.6139 23.5012 26.8505 24.5651 26.5584 25.2031C26.4714 25.3917 26.4258 25.5419 26.4497 25.6289C26.4652 25.6848 26.5087 25.7314 26.5584 25.777C26.575 25.7936 26.5926 25.8091 26.6102 25.8257C26.6817 25.8899 26.749 25.9624 26.7511 26.0681C26.7532 26.1395 26.6744 26.297 26.5584 26.4845C26.5553 26.4897 26.5522 26.4938 26.5491 26.499C26.4497 26.6585 26.3233 26.8398 26.1979 27.0055C25.9897 27.2821 25.7836 27.5151 25.7038 27.5431C25.6458 27.5638 25.5785 27.5483 25.506 27.5307C25.4231 27.511 25.3351 27.4882 25.2491 27.511C25.0927 27.5514 23.4115 29.6738 23.1857 29.9898C22.991 30.2601 22.9785 30.5201 22.8055 30.7698C22.558 31.1271 22.0691 31.3498 21.6402 31.3954C21.0695 31.4565 20.0264 31.4918 18.9864 31.4938C17.9464 31.4918 16.9033 31.4565 16.3325 31.3954C15.9037 31.3498 15.4148 31.1271 15.1672 30.7698C14.9942 30.5201 14.9818 30.2601 14.7871 29.9898C14.5613 29.6738 12.8801 27.5514 12.7237 27.511C12.6377 27.4882 12.5486 27.512 12.4657 27.5307C12.3943 27.5483 12.3259 27.5638 12.2689 27.5431C12.1767 27.511 11.9136 27.2013 11.6733 26.8698C11.5904 26.7548 11.5097 26.6378 11.4413 26.528C11.4351 26.5187 11.4289 26.5083 11.4237 26.499C11.3025 26.3053 11.2196 26.1416 11.2217 26.0681C11.2248 25.9614 11.2921 25.8899 11.3626 25.8257C11.3895 25.7998 11.4164 25.777 11.4413 25.7521C11.4796 25.7138 11.5107 25.6744 11.5231 25.6289C11.5438 25.5522 11.5107 25.4238 11.4413 25.2632C11.172 24.6334 10.363 23.5137 10.248 23.0993C10.247 23.0973 10.247 23.0952 10.2459 23.0921C10.19 22.8797 10.218 22.4395 10.2811 22.1774C10.7058 22.6653 11.0787 23.2402 11.4413 23.784C11.5221 23.9052 11.6018 24.0274 11.6806 24.1497C11.9468 24.5609 12.2047 24.9794 12.4657 25.3958C12.8935 26.0774 13.3276 26.7517 13.8144 27.3794C14.0558 27.6912 14.6348 28.4236 15.0999 28.7789C15.2687 28.9084 15.4759 28.9767 15.6883 28.9746L18.9864 28.9477L22.2835 28.9746C22.4958 28.9767 22.703 28.9084 22.8729 28.7789C23.338 28.4236 23.917 27.6912 24.1584 27.3794C24.6452 26.7528 25.0792 26.0784 25.506 25.3979C25.7339 25.0343 25.9587 24.6697 26.1907 24.3092C26.3108 24.1186 26.4331 23.9301 26.5584 23.7436C26.9127 23.2143 27.2607 22.6767 27.6751 22.2002C27.7382 22.4613 27.7818 22.8756 27.7269 23.09Z" fill="#E8E8E8"/>
<path d="M24.9654 21.6285C24.9167 21.8294 21.2643 22.886 21.0167 22.8549C20.1611 22.7492 20.2647 21.153 19.2962 20.9842C19.1843 20.9645 19.0807 20.9562 18.9865 20.9583C18.8922 20.9562 18.7886 20.9645 18.6768 20.9842C17.7082 21.153 17.8118 22.7492 16.9562 22.8549C16.7086 22.886 13.0563 21.8294 13.0076 21.6285L13.0231 19.9162C14.9902 19.4055 16.9883 19.1621 18.9865 19.1704C20.9846 19.1621 22.9828 19.4055 24.9498 19.9162L24.9654 21.6285Z" fill="#FF5220"/>
<path d="M12.2958 20.0446V23.9446L11.7178 23.1605L11.4413 22.7855L10.5308 21.5508C10.6665 20.9945 11.0601 20.6289 11.4413 20.3979C11.6619 20.2642 11.8784 20.1752 12.0379 20.1213C12.1933 20.0664 12.2958 20.0446 12.2958 20.0446Z" fill="#E8E8E8"/>
<path d="M10.7638 25.2291L9.92065 25.2301L10.0273 23.8597L10.423 24.5692L10.7638 25.2291Z" fill="#E8E8E8"/>
<path d="M27.209 25.2291L28.0522 25.2301L27.9455 23.8597L27.5498 24.5692L27.209 25.2291Z" fill="#E8E8E8"/>
<path d="M27.441 21.5508L26.5584 22.7482L26.1659 23.2796L25.6759 23.9446V20.0446C25.6759 20.0446 26.113 20.1379 26.5584 20.4155C26.9303 20.6465 27.3084 21.008 27.441 21.5508Z" fill="#E8E8E8"/>
<path d="M25.5061 4.02527V11.3062C24.4702 10.0176 23.0387 9.02115 21.5046 8.54259C20.6666 8.28052 19.8183 8.1614 18.9865 8.17072C18.1547 8.1614 17.3063 8.28052 16.4683 8.54259C14.9342 9.02115 13.5017 10.0187 12.4658 11.3083V4.02527H16.1596L18.9865 6.84898L21.8123 4.02527H25.5061Z" fill="#FF5220"/>
<path d="M25.5061 28.261V31.4825L18.9865 38.0001L12.4658 31.4825V28.261C12.5487 28.2424 12.6378 28.2186 12.7237 28.2414C12.8802 28.2818 14.5613 30.4042 14.7872 30.7201C14.9819 30.9905 14.9943 31.2505 15.1673 31.5001C15.4149 31.8575 15.9038 32.0802 16.3326 32.1258C16.9034 32.1869 17.9465 32.2221 18.9865 32.2242C20.0265 32.2221 21.0696 32.1869 21.6403 32.1258C22.0691 32.0802 22.5581 31.8575 22.8056 31.5001C22.9786 31.2505 22.991 30.9905 23.1858 30.7201C23.4116 30.4042 25.0928 28.2818 25.2492 28.2414C25.3352 28.2186 25.4232 28.2414 25.5061 28.261Z" fill="#FF5220"/>
<path d="M30.6532 5.6474V26.4368L26.5585 30.5305V27.6063C27.4452 26.8574 29.81 24.7867 29.8297 24.4335C29.7199 22.7534 29.7095 20.547 29.2196 18.9207C28.9098 17.8911 28.7876 17.541 27.8875 17.1173C27.9051 16.8459 27.904 16.5776 27.8864 16.3104C27.8336 15.4569 27.615 14.6261 27.267 13.8472C27.0702 13.4059 26.8319 12.9791 26.5585 12.5751V5.6474H30.6532Z" fill="#FF5220"/>
<path d="M11.4414 5.6474V12.5347C11.169 12.9304 10.9307 13.3479 10.7339 13.7809C10.3693 14.5795 10.1404 15.433 10.0855 16.3104C10.0678 16.5776 10.0668 16.847 10.0844 17.1184C9.18531 17.541 9.06204 17.8911 8.75336 18.9207C8.2634 20.547 8.25305 22.6228 8.14325 24.303C8.165 24.7059 9.38833 25.7894 11.4414 27.3142V30.5305L7.34668 26.4368V5.6474H11.4414Z" fill="#FF5220"/>
<path d="M18.9868 -0.0013932L16.1608 2.82269L18.9849 5.64875L21.8109 2.82467L18.9868 -0.0013932Z" fill="#FF5220"/>
</g>
<defs>
<clipPath id="clip0_628_1377">
<rect width="23.3065" height="38" fill="white" transform="translate(7.34668)"/>
</clipPath>
</defs>
</svg>
