<svg width="50" height="8" viewBox="0 0 50 8" fill="none" xmlns="http://www.w3.org/2000/svg">
<path d="M1 4.08578H1.1L2.55 3.71295C3.51667 3.4644 4.25 3.49034 4.75 3.79077L6.25 4.69207C6.75 4.9925 7.25 5.0366 7.75 4.82436L9.25 4.18766C9.75 3.97542 10.25 3.88955 10.75 3.93004L12.25 4.05152C12.75 4.09201 13.25 4.0996 13.75 4.0743L15.25 3.99837C15.75 3.97306 16.25 3.99743 16.75 4.07147L18.25 4.2936C18.75 4.36764 19.25 4.44599 19.75 4.52864L21.25 4.7766C21.75 4.85925 22.25 4.84409 22.75 4.73111L24.25 4.39218C24.75 4.2792 25.25 4.20974 25.75 4.18379L27.25 4.10593C27.75 4.07998 28.25 4.1674 28.75 4.3682L30.25 4.97062C30.75 5.17142 31.25 5.07757 31.75 4.68906L33.25 3.52354C33.75 3.13503 34.25 2.93945 34.75 2.93678L36.25 2.92878C36.75 2.92612 37.25 2.92608 37.75 2.92869L39.25 2.93649C39.75 2.9391 40.25 3.08126 40.75 3.36297L42.25 4.20813C42.75 4.48984 43.25 4.63891 43.75 4.65533L45.25 4.70458C45.75 4.721 46.1667 4.62968 46.5 4.43063L47.5 3.83347C47.8333 3.63442 48 3.5808 48 3.67262V3.81034L47.9 4.08578H48" stroke="#484848" stroke-width="4"/>
</svg>
