<svg width="106" height="26" viewBox="0 0 106 26" fill="none" xmlns="http://www.w3.org/2000/svg">
<path d="M19.0625 5.51129C18.228 4.96799 17.5421 4.22529 17.0668 3.35033C16.5914 2.47537 16.3416 1.49575 16.3399 0.5L12.0415 0.5L12.0351 17.725C11.9999 18.6583 11.6046 19.5416 10.9322 20.1898C10.2598 20.838 9.36256 21.2006 8.42863 21.2016C7.84445 21.2017 7.26912 21.0588 6.75282 20.7855C6.16916 20.4799 5.68016 20.0205 5.33873 19.4571C4.99731 18.8936 4.81645 18.2475 4.81572 17.5887C4.81658 16.6308 5.1975 15.7123 5.87486 15.0349C6.55223 14.3576 7.47069 13.9767 8.42863 13.9758C8.7996 13.9758 9.15686 14.0379 9.49476 14.1427V9.75565C9.14149 9.70629 8.78533 9.68043 8.42863 9.67823C4.06653 9.67903 0.517334 13.2274 0.517334 17.5887C0.517726 18.8603 0.824953 20.1131 1.41293 21.2406C2.00091 22.3681 2.85228 23.3371 3.89476 24.0653C5.22175 24.9994 6.80503 25.5005 8.42782 25.5C12.7899 25.5 16.3391 21.9516 16.3391 17.5887V8.85484C18.081 10.108 20.1732 10.7809 22.319 10.7782V6.47984C21.1626 6.47956 20.0313 6.14255 19.0625 5.51129Z" fill="url(#paint0_linear_767_8528)"/>
<path d="M26.4238 6.49976H39.9771L38.7327 10.378L35.2166 10.3764V24.711H30.8367V10.3764L26.4287 10.3844L26.4238 6.49976Z" fill="url(#paint1_linear_767_8528)"/>
<path d="M62.1777 6.49976H76.0447L74.7995 10.3788L70.9769 10.3772V24.7119H66.5882V10.3764L62.1802 10.3844L62.1777 6.49976Z" fill="url(#paint2_linear_767_8528)"/>
<path d="M40.8035 12.2925H45.1486L45.1438 24.7118H40.8293L40.8035 12.2925Z" fill="url(#paint3_linear_767_8528)"/>
<path d="M46.8713 6.44995H51.2117V14.9306L55.5125 10.7096H60.6947L55.2528 15.9903L61.348 24.7112H56.5657L52.4988 18.6629L51.2117 19.9129V24.7112H46.8721L46.8713 6.44995Z" fill="url(#paint4_linear_767_8528)"/>
<path d="M91.0061 6.44995H95.3464V14.9306L99.648 10.7096H104.83L99.3884 15.9903L105.483 24.7112H100.7L96.6335 18.6629L95.3464 19.9129V24.7112H91.0061V6.44995Z" fill="url(#paint5_linear_767_8528)"/>
<path d="M42.9742 10.8732C43.5543 10.8732 44.1106 10.6428 44.5207 10.2326C44.9309 9.82247 45.1613 9.26617 45.1613 8.68612C45.1613 8.10607 44.9309 7.54977 44.5207 7.13961C44.1106 6.72945 43.5543 6.49902 42.9742 6.49902C42.3942 6.49902 41.8379 6.72945 41.4277 7.13961C41.0175 7.54977 40.7871 8.10607 40.7871 8.68612C40.7871 9.26617 41.0175 9.82247 41.4277 10.2326C41.8379 10.6428 42.3942 10.8732 42.9742 10.8732Z" fill="url(#paint6_linear_767_8528)"/>
<path d="M81.8079 9.84448C79.8364 9.84491 77.9459 10.6283 76.5518 12.0223C75.1578 13.4163 74.3745 15.3069 74.374 17.2784C74.374 19.25 75.1573 21.141 76.5515 22.5352C77.9457 23.9294 79.8366 24.7126 81.8083 24.7126C83.78 24.7126 85.6709 23.9294 87.0651 22.5352C88.4593 21.141 89.2426 19.25 89.2426 17.2784C89.2422 15.3068 88.4587 13.4161 87.0645 12.022C85.6703 10.6279 83.7795 9.8447 81.8079 9.84448ZM81.8079 20.8913C81.3332 20.8911 80.8632 20.7976 80.4247 20.6158C79.9863 20.4341 79.5879 20.1677 79.2523 19.832C78.9167 19.4963 78.6506 19.0978 78.469 18.6592C78.2875 18.2206 78.1941 17.7506 78.1942 17.2759C78.1943 16.8013 78.2879 16.3313 78.4696 15.8928C78.6514 15.4543 78.9177 15.0559 79.2534 14.7203C79.5891 14.3848 79.9877 14.1186 80.4262 13.9371C80.8648 13.7555 81.3348 13.6621 81.8095 13.6622C82.7681 13.6624 83.6874 14.0435 84.3651 14.7215C85.0428 15.3995 85.4234 16.3189 85.4232 17.2775C85.423 18.2362 85.042 19.1555 84.364 19.8332C83.686 20.5109 82.7665 20.8915 81.8079 20.8913Z" fill="url(#paint7_linear_767_8528)"/>
<defs>
<linearGradient id="paint0_linear_767_8528" x1="53.0004" y1="0.5" x2="53.0004" y2="25.5" gradientUnits="userSpaceOnUse">
<stop stop-color="white"/>
<stop offset="1" stop-color="#D3D3D3"/>
</linearGradient>
<linearGradient id="paint1_linear_767_8528" x1="53.0005" y1="0.499756" x2="53.0005" y2="25.4998" gradientUnits="userSpaceOnUse">
<stop stop-color="white"/>
<stop offset="1" stop-color="#D3D3D3"/>
</linearGradient>
<linearGradient id="paint2_linear_767_8528" x1="53.0003" y1="0.499756" x2="53.0003" y2="25.4998" gradientUnits="userSpaceOnUse">
<stop stop-color="white"/>
<stop offset="1" stop-color="#D3D3D3"/>
</linearGradient>
<linearGradient id="paint3_linear_767_8528" x1="52.9994" y1="0.499738" x2="52.9994" y2="25.4997" gradientUnits="userSpaceOnUse">
<stop stop-color="white"/>
<stop offset="1" stop-color="#D3D3D3"/>
</linearGradient>
<linearGradient id="paint4_linear_767_8528" x1="52.9996" y1="0.499951" x2="52.9996" y2="25.5" gradientUnits="userSpaceOnUse">
<stop stop-color="white"/>
<stop offset="1" stop-color="#D3D3D3"/>
</linearGradient>
<linearGradient id="paint5_linear_767_8528" x1="53.0004" y1="0.499951" x2="53.0004" y2="25.5" gradientUnits="userSpaceOnUse">
<stop stop-color="white"/>
<stop offset="1" stop-color="#D3D3D3"/>
</linearGradient>
<linearGradient id="paint6_linear_767_8528" x1="53" y1="0.49983" x2="53" y2="25.4998" gradientUnits="userSpaceOnUse">
<stop stop-color="white"/>
<stop offset="1" stop-color="#D3D3D3"/>
</linearGradient>
<linearGradient id="paint7_linear_767_8528" x1="53.0006" y1="0.500127" x2="53.0006" y2="25.5001" gradientUnits="userSpaceOnUse">
<stop stop-color="white"/>
<stop offset="1" stop-color="#D3D3D3"/>
</linearGradient>
</defs>
</svg>
