<svg width="48" height="48" viewBox="0 0 48 48" fill="none" xmlns="http://www.w3.org/2000/svg">
<mask id="mask0_767_8370" style="mask-type:luminance" maskUnits="userSpaceOnUse" x="1" y="6" width="46" height="36">
<path d="M46.3235 6H1.67639V42H46.3235V6Z" fill="white"/>
</mask>
<g mask="url(#mask0_767_8370)">
<path fill-rule="evenodd" clip-rule="evenodd" d="M28.6786 10.0773V6.03109V6.02979H46.1842V10.0786H44.6305C41.0753 10.2842 39.7325 12.8573 36.3757 20.2663L26.4395 41.915H22.6885L22.5883 41.7245L9.98081 17.7259C8.15084 14.2879 6.56965 11.3181 5.01597 10.5206C4.25281 10.195 3.42163 10.0608 2.59477 10.1297H1.77832V6.08347H26.1317V10.1291H25.0913C23.7812 10.1291 22.9117 10.4329 22.5071 11.0319C22.0848 11.6559 22.1405 12.6419 22.6708 13.9619L28.1201 24.8546C29.9004 20.8136 32.8447 14.1138 32.9796 13.7458C33.5832 11.8373 33.0601 11.1845 32.537 10.8309C31.6582 10.3105 30.6502 10.0492 29.6293 10.0773H28.6786ZM30.0235 8.74794V7.37628H44.8374V8.71979L44.5696 8.73287C40.179 8.98887 38.6024 12.089 35.1533 19.7049L25.5759 40.5686H23.5023L11.1645 17.0833L11.1619 17.0783C9.14592 13.2957 7.55418 10.309 5.63927 9.32541C4.92758 8.9771 4.14649 8.79508 3.35426 8.79508L3.12444 8.79049V7.428H24.7823L24.7849 8.78461L24.5603 8.79836C23.0584 8.89198 21.9931 9.38827 21.3914 10.278C21.0463 10.8082 20.8699 11.4304 20.8854 12.0628C20.9108 12.8905 21.0935 13.7057 21.4235 14.4651L28.1967 28.0147L34.2583 14.1626C34.464 13.5524 34.575 12.9142 34.5876 12.2704C34.6114 11.7729 34.5063 11.2777 34.2825 10.8328C34.0587 10.3878 33.7238 10.0082 33.3102 9.73069C32.3898 9.14647 31.3336 8.81079 30.2447 8.75644L30.0235 8.74794ZM25.2675 40.0893L34.7166 19.5071C38.1611 11.9051 39.7842 8.70538 44.1696 8.28505H31.3801V8.43498C31.3801 8.43498 35.7098 9.1159 35.9422 12.7824C35.9521 13.506 35.8369 14.2259 35.6018 14.9103L35.5854 14.964C35.3936 15.4812 28.8279 30.252 28.8279 30.252L20.9881 14.6608C20.2083 12.7287 20.2142 11.1678 20.9966 10.0116C21.383 9.4975 21.8825 9.07924 22.4564 8.78916C23.0303 8.49907 23.6633 8.34496 24.3063 8.33873V8.33677H5.15216V8.60521C6.39927 9.04778 7.56139 9.70059 8.58818 10.5354C10.117 11.9345 11.4991 14.5181 13.1654 17.6425L24.9565 40.0893H25.2675Z" fill="white"/>
<path d="M44.1696 8.28516H31.38V8.43509C31.38 8.43509 35.7091 9.11667 35.9422 12.7825C35.9521 13.5061 35.8369 14.226 35.6017 14.9104L35.5854 14.9641C35.3929 15.4813 28.8279 30.2521 28.8279 30.2521L20.9881 14.6616C20.2083 12.7295 20.2142 11.1686 20.9966 10.0123C21.3829 9.49816 21.8823 9.07982 22.4563 8.78972C23.0302 8.49963 23.6632 8.34558 24.3063 8.3395V8.33753H5.1521V8.60597C6.39914 9.04869 7.56124 9.70149 8.58813 10.5361C10.1169 11.9353 11.4991 14.5182 13.1654 17.6426L24.9565 40.0901H25.2675L34.7166 19.5079C38.1611 11.9058 39.7835 8.70549 44.1696 8.28516Z" fill="#FF5220"/>
</g>
</svg>
