<svg width="113" height="26" viewBox="0 0 113 26" fill="none" xmlns="http://www.w3.org/2000/svg">
<path d="M14.6324 18.3571V7.64286L23.9181 13L14.6324 18.3571ZM35.311 4.40179C35.1078 3.64635 34.7097 2.95755 34.1566 2.4044C33.6034 1.85124 32.9146 1.45315 32.1592 1.25C29.3645 0.5 18.2038 0.5 18.2038 0.5C18.2038 0.5 7.04311 0.5 4.24847 1.25C3.49303 1.45315 2.80423 1.85124 2.25108 2.4044C1.69792 2.95755 1.29983 3.64635 1.09668 4.40179C0.34668 7.19643 0.34668 13 0.34668 13C0.34668 13 0.34668 18.8036 1.09668 21.5982C1.29983 22.3537 1.69792 23.0424 2.25108 23.5956C2.80423 24.1488 3.49303 24.5468 4.24847 24.75C7.04311 25.5 18.2038 25.5 18.2038 25.5C18.2038 25.5 29.3645 25.5 32.1592 24.75C32.9146 24.5468 33.6034 24.1488 34.1566 23.5956C34.7097 23.0424 35.1078 22.3537 35.311 21.5982C36.061 18.8036 36.061 13 36.061 13C36.061 13 36.061 7.19643 35.311 4.40179Z" fill="url(#paint0_linear_767_8543)"/>
<path d="M56.1503 20.7948C56.3407 20.2769 56.436 19.4436 56.436 18.2948V13.4109C56.436 12.2859 56.3378 11.4644 56.1413 10.9466C55.9449 10.4287 55.5997 10.1698 55.1056 10.1698C54.6354 10.1698 54.2991 10.4287 54.0967 10.9466C53.9062 11.4644 53.811 12.2859 53.811 13.4109V18.2859C53.811 19.4466 53.9032 20.2799 54.0877 20.7859C54.2782 21.3037 54.6175 21.5597 55.1056 21.5537C55.5997 21.5537 55.9449 21.3007 56.1413 20.7948M52.177 23.2412C51.4284 22.7005 50.8941 21.9134 50.6681 21.018C50.3705 20.018 50.2217 18.6817 50.2217 17.0091V14.7412C50.2217 13.0507 50.3913 11.6966 50.7306 10.6787C50.9939 9.77206 51.5614 8.98379 52.3378 8.44657C53.2004 7.95257 54.1835 7.70834 55.177 7.74121C56.3378 7.74121 57.2663 7.97931 57.9627 8.4555C58.7091 9.00585 59.2472 9.79257 59.4895 10.6876C59.8169 11.6995 59.9806 13.0507 59.9806 14.7412V17.0091C59.9806 18.6757 59.8229 20.015 59.5074 21.0269C59.2764 21.9295 58.7321 22.7207 57.9717 23.2591C57.2693 23.7234 56.311 23.9555 55.0967 23.9555C54.0752 24.0009 53.0621 23.753 52.177 23.2412Z" fill="url(#paint1_linear_767_8543)"/>
<path d="M106.882 10.4554C106.704 10.6815 106.585 11.0446 106.525 11.5446C106.466 12.0506 106.436 12.8125 106.436 13.8304V14.9554H109.007V13.8304C109.007 12.8244 108.975 12.0625 108.909 11.5446C108.844 11.0268 108.719 10.6607 108.534 10.4464C108.35 10.2321 108.076 10.125 107.713 10.125C107.35 10.125 107.07 10.2351 106.874 10.4554M106.427 17.0446V17.8482C106.427 18.8482 106.457 19.5982 106.516 20.0982C106.576 20.6101 106.695 20.9762 106.874 21.1964C107.07 21.4286 107.362 21.5446 107.749 21.5446C108.284 21.5446 108.647 21.3393 108.838 20.9286C109.034 20.5238 109.141 19.8423 109.159 18.8839L112.195 19.0625C112.213 19.2054 112.222 19.3929 112.222 19.625C112.222 21.0774 111.826 22.1607 111.034 22.875C110.243 23.5893 109.124 23.9464 107.677 23.9464C105.939 23.9464 104.719 23.4018 104.016 22.3125C103.314 21.2232 102.966 19.5357 102.972 17.25V14.5179C102.972 12.1726 103.335 10.4583 104.061 9.375C104.781 8.29167 106.019 7.75 107.775 7.75C108.984 7.75 109.912 7.97321 110.561 8.41964C111.248 8.92244 111.732 9.65385 111.927 10.4821C112.195 11.4226 112.326 12.7173 112.32 14.3661V17.0446H106.427Z" fill="url(#paint2_linear_767_8543)"/>
<path d="M43.6055 16.7502L39.5876 2.28589H43.0966L44.4984 8.84839C44.8555 10.4674 45.1204 11.8454 45.293 12.9823H45.3912C45.5103 12.1668 45.7751 10.7978 46.1859 8.87517L47.6412 2.28589H51.1412L47.0787 16.7502V23.6966H43.5966L43.6055 16.7502Z" fill="url(#paint3_linear_767_8543)"/>
<path d="M71.3645 8.04443V23.7141H68.6055L68.302 21.7944H68.2305C67.4805 23.2409 66.3555 23.9641 64.8555 23.9641C63.8198 23.9641 63.0549 23.6248 62.5609 22.9462C62.0668 22.2617 61.8198 21.1962 61.8198 19.7498V8.04443H65.3377V19.5355C65.3377 20.2379 65.4151 20.7379 65.5698 21.0355C65.7246 21.3331 65.9805 21.4819 66.3377 21.4819C66.6413 21.4819 66.9359 21.3867 67.2216 21.1962C67.4954 21.0176 67.7038 20.7796 67.8466 20.4819V8.04443H71.3645Z" fill="url(#paint4_linear_767_8543)"/>
<path d="M89.4539 8.04443V23.7141H86.686L86.3824 21.7944H86.3021C85.5521 23.2409 84.4301 23.9641 82.936 23.9641C81.8943 23.9641 81.1265 23.6248 80.6324 22.9462C80.1384 22.2617 79.8914 21.1962 79.8914 19.7498V8.04443H83.4181V19.5355C83.4181 20.2379 83.4955 20.7379 83.6503 21.0355C83.8051 21.3331 84.061 21.4819 84.4181 21.4819C84.7217 21.4819 85.0134 21.3867 85.2931 21.1962C85.5789 21.0176 85.7872 20.7796 85.9181 20.4819V8.04443H89.4539Z" fill="url(#paint5_linear_767_8543)"/>
<path d="M80.9451 5.10732H77.4451V23.7145H74.0076V5.10732H70.5076V2.28589H80.954L80.9451 5.10732Z" fill="url(#paint6_linear_767_8543)"/>
<path d="M97.8827 16.9286C97.8827 18.0774 97.8351 18.9732 97.7398 19.6161C97.6505 20.2649 97.4928 20.7262 97.2666 21C97.0464 21.2679 96.7487 21.4018 96.3737 21.4018C96.088 21.4018 95.8202 21.3334 95.5702 21.1965C95.3202 21.0596 95.1208 20.8572 94.972 20.5893V11.6965C95.091 11.2798 95.2934 10.9316 95.5791 10.6518C95.8767 10.378 96.1922 10.2411 96.5255 10.2411C96.8827 10.2411 97.1595 10.384 97.3559 10.6697C97.5523 10.9494 97.6892 11.4197 97.7666 12.0804C97.844 12.7471 97.8827 13.6935 97.8827 14.9197V16.9286ZM101.115 10.5536C100.994 9.75111 100.633 9.00404 100.079 8.41075C99.8127 8.17408 99.5017 7.99295 99.1644 7.87796C98.8272 7.76298 98.4703 7.71645 98.1148 7.74111C97.466 7.74111 96.8618 7.92265 96.3023 8.28575C95.7309 8.64884 95.2964 9.13099 94.9987 9.73218H94.972V1.48218H91.5791V23.7143H94.4809L94.838 22.2322H94.9184C95.1862 22.7619 95.594 23.1786 96.1416 23.4822C96.6892 23.7857 97.2934 23.9375 97.9541 23.9375C98.5071 23.9584 99.0536 23.813 99.5231 23.5201C99.9926 23.2273 100.364 22.8004 100.588 22.2947C101.148 21.1994 101.427 19.4852 101.427 17.1518V14.6697C101.427 12.9197 101.323 11.5506 101.115 10.5625" fill="url(#paint7_linear_767_8543)"/>
<defs>
<linearGradient id="paint0_linear_767_8543" x1="56.3377" y1="0.5" x2="56.3377" y2="25.5" gradientUnits="userSpaceOnUse">
<stop stop-color="white"/>
<stop offset="1" stop-color="#D3D3D3"/>
</linearGradient>
<linearGradient id="paint1_linear_767_8543" x1="56.3378" y1="0.50014" x2="56.3378" y2="25.5001" gradientUnits="userSpaceOnUse">
<stop stop-color="white"/>
<stop offset="1" stop-color="#D3D3D3"/>
</linearGradient>
<linearGradient id="paint2_linear_767_8543" x1="56.3378" y1="0.5" x2="56.3378" y2="25.5" gradientUnits="userSpaceOnUse">
<stop stop-color="white"/>
<stop offset="1" stop-color="#D3D3D3"/>
</linearGradient>
<linearGradient id="paint3_linear_767_8543" x1="56.3376" y1="0.500174" x2="56.3376" y2="25.5002" gradientUnits="userSpaceOnUse">
<stop stop-color="white"/>
<stop offset="1" stop-color="#D3D3D3"/>
</linearGradient>
<linearGradient id="paint4_linear_767_8543" x1="56.3377" y1="0.49979" x2="56.3377" y2="25.4998" gradientUnits="userSpaceOnUse">
<stop stop-color="white"/>
<stop offset="1" stop-color="#D3D3D3"/>
</linearGradient>
<linearGradient id="paint5_linear_767_8543" x1="56.3378" y1="0.49979" x2="56.3378" y2="25.4998" gradientUnits="userSpaceOnUse">
<stop stop-color="white"/>
<stop offset="1" stop-color="#D3D3D3"/>
</linearGradient>
<linearGradient id="paint6_linear_767_8543" x1="56.3379" y1="0.500174" x2="56.3379" y2="25.5002" gradientUnits="userSpaceOnUse">
<stop stop-color="white"/>
<stop offset="1" stop-color="#D3D3D3"/>
</linearGradient>
<linearGradient id="paint7_linear_767_8543" x1="56.338" y1="0.500035" x2="56.338" y2="25.5" gradientUnits="userSpaceOnUse">
<stop stop-color="white"/>
<stop offset="1" stop-color="#D3D3D3"/>
</linearGradient>
</defs>
</svg>
