<svg width="28" height="20" viewBox="0 0 28 20" fill="none" xmlns="http://www.w3.org/2000/svg">
<g clip-path="url(#clip0_212_5918)">
<path d="M26 0H2C0.89543 0 0 0.89543 0 2V18C0 19.1046 0.89543 20 2 20H26C27.1046 20 28 19.1046 28 18V2C28 0.89543 27.1046 0 26 0Z" fill="white"/>
<mask id="mask0_212_5918" style="mask-type:luminance" maskUnits="userSpaceOnUse" x="0" y="0" width="28" height="20">
<path d="M26 0H2C0.89543 0 0 0.89543 0 2V18C0 19.1046 0.89543 20 2 20H26C27.1046 20 28 19.1046 28 18V2C28 0.89543 27.1046 0 26 0Z" fill="white"/>
</mask>
<g mask="url(#mask0_212_5918)">
<path fill-rule="evenodd" clip-rule="evenodd" d="M28 0H0V1.33333H28V0ZM28 2.66667H0V4H28V2.66667ZM0 5.33333H28V6.66667H0V5.33333ZM28 8H0V9.33333H28V8ZM0 10.6667H28V12H0V10.6667ZM28 13.3333H0V14.6667H28V13.3333ZM0 16H28V17.3333H0V16ZM28 18.6667H0V20H28V18.6667Z" fill="#D02F44"/>
<path d="M12 0H0V9.33333H12V0Z" fill="#46467F"/>
<g filter="url(#filter0_d_212_5918)">
<path fill-rule="evenodd" clip-rule="evenodd" d="M2.66671 1.99968C2.66671 2.36787 2.36823 2.66635 2.00004 2.66635C1.63185 2.66635 1.33337 2.36787 1.33337 1.99968C1.33337 1.63149 1.63185 1.33301 2.00004 1.33301C2.36823 1.33301 2.66671 1.63149 2.66671 1.99968ZM5.33337 1.99968C5.33337 2.36787 5.0349 2.66635 4.66671 2.66635C4.29852 2.66635 4.00004 2.36787 4.00004 1.99968C4.00004 1.63149 4.29852 1.33301 4.66671 1.33301C5.0349 1.33301 5.33337 1.63149 5.33337 1.99968ZM7.33337 2.66635C7.70156 2.66635 8.00004 2.36787 8.00004 1.99968C8.00004 1.63149 7.70156 1.33301 7.33337 1.33301C6.96518 1.33301 6.66671 1.63149 6.66671 1.99968C6.66671 2.36787 6.96518 2.66635 7.33337 2.66635ZM10.6667 1.99968C10.6667 2.36787 10.3682 2.66635 10 2.66635C9.63185 2.66635 9.33337 2.36787 9.33337 1.99968C9.33337 1.63149 9.63185 1.33301 10 1.33301C10.3682 1.33301 10.6667 1.63149 10.6667 1.99968ZM3.33337 3.99968C3.70156 3.99968 4.00004 3.7012 4.00004 3.33301C4.00004 2.96482 3.70156 2.66635 3.33337 2.66635C2.96518 2.66635 2.66671 2.96482 2.66671 3.33301C2.66671 3.7012 2.96518 3.99968 3.33337 3.99968ZM6.66671 3.33301C6.66671 3.7012 6.36823 3.99968 6.00004 3.99968C5.63185 3.99968 5.33337 3.7012 5.33337 3.33301C5.33337 2.96482 5.63185 2.66635 6.00004 2.66635C6.36823 2.66635 6.66671 2.96482 6.66671 3.33301ZM8.66671 3.99968C9.0349 3.99968 9.33337 3.7012 9.33337 3.33301C9.33337 2.96482 9.0349 2.66635 8.66671 2.66635C8.29852 2.66635 8.00004 2.96482 8.00004 3.33301C8.00004 3.7012 8.29852 3.99968 8.66671 3.99968ZM10.6667 4.66635C10.6667 5.03454 10.3682 5.33301 10 5.33301C9.63185 5.33301 9.33337 5.03454 9.33337 4.66635C9.33337 4.29816 9.63185 3.99968 10 3.99968C10.3682 3.99968 10.6667 4.29816 10.6667 4.66635ZM7.33337 5.33301C7.70156 5.33301 8.00004 5.03454 8.00004 4.66635C8.00004 4.29816 7.70156 3.99968 7.33337 3.99968C6.96518 3.99968 6.66671 4.29816 6.66671 4.66635C6.66671 5.03454 6.96518 5.33301 7.33337 5.33301ZM5.33337 4.66635C5.33337 5.03454 5.0349 5.33301 4.66671 5.33301C4.29852 5.33301 4.00004 5.03454 4.00004 4.66635C4.00004 4.29816 4.29852 3.99968 4.66671 3.99968C5.0349 3.99968 5.33337 4.29816 5.33337 4.66635ZM2.00004 5.33301C2.36823 5.33301 2.66671 5.03454 2.66671 4.66635C2.66671 4.29816 2.36823 3.99968 2.00004 3.99968C1.63185 3.99968 1.33337 4.29816 1.33337 4.66635C1.33337 5.03454 1.63185 5.33301 2.00004 5.33301ZM4.00004 5.99968C4.00004 6.36787 3.70156 6.66635 3.33337 6.66635C2.96518 6.66635 2.66671 6.36787 2.66671 5.99968C2.66671 5.63149 2.96518 5.33301 3.33337 5.33301C3.70156 5.33301 4.00004 5.63149 4.00004 5.99968ZM6.00004 6.66635C6.36823 6.66635 6.66671 6.36787 6.66671 5.99968C6.66671 5.63149 6.36823 5.33301 6.00004 5.33301C5.63185 5.33301 5.33337 5.63149 5.33337 5.99968C5.33337 6.36787 5.63185 6.66635 6.00004 6.66635ZM9.33337 5.99968C9.33337 6.36787 9.0349 6.66635 8.66671 6.66635C8.29852 6.66635 8.00004 6.36787 8.00004 5.99968C8.00004 5.63149 8.29852 5.33301 8.66671 5.33301C9.0349 5.33301 9.33337 5.63149 9.33337 5.99968ZM10 7.99968C10.3682 7.99968 10.6667 7.7012 10.6667 7.33301C10.6667 6.96482 10.3682 6.66635 10 6.66635C9.63185 6.66635 9.33337 6.96482 9.33337 7.33301C9.33337 7.7012 9.63185 7.99968 10 7.99968ZM8.00004 7.33301C8.00004 7.7012 7.70156 7.99968 7.33337 7.99968C6.96518 7.99968 6.66671 7.7012 6.66671 7.33301C6.66671 6.96482 6.96518 6.66635 7.33337 6.66635C7.70156 6.66635 8.00004 6.96482 8.00004 7.33301ZM4.66671 7.99968C5.0349 7.99968 5.33337 7.7012 5.33337 7.33301C5.33337 6.96482 5.0349 6.66635 4.66671 6.66635C4.29852 6.66635 4.00004 6.96482 4.00004 7.33301C4.00004 7.7012 4.29852 7.99968 4.66671 7.99968ZM2.66671 7.33301C2.66671 7.7012 2.36823 7.99968 2.00004 7.99968C1.63185 7.99968 1.33337 7.7012 1.33337 7.33301C1.33337 6.96482 1.63185 6.66635 2.00004 6.66635C2.36823 6.66635 2.66671 6.96482 2.66671 7.33301Z" fill="url(#paint0_linear_212_5918)"/>
</g>
</g>
</g>
<defs>
<filter id="filter0_d_212_5918" x="1.33337" y="1.33301" width="9.33337" height="7.66699" filterUnits="userSpaceOnUse" color-interpolation-filters="sRGB">
<feFlood flood-opacity="0" result="BackgroundImageFix"/>
<feColorMatrix in="SourceAlpha" type="matrix" values="0 0 0 0 0 0 0 0 0 0 0 0 0 0 0 0 0 0 127 0" result="hardAlpha"/>
<feOffset dy="1"/>
<feColorMatrix type="matrix" values="0 0 0 0 0 0 0 0 0 0 0 0 0 0 0 0 0 0 0.06 0"/>
<feBlend mode="normal" in2="BackgroundImageFix" result="effect1_dropShadow_212_5918"/>
<feBlend mode="normal" in="SourceGraphic" in2="effect1_dropShadow_212_5918" result="shape"/>
</filter>
<linearGradient id="paint0_linear_212_5918" x1="1.33337" y1="1.33301" x2="1.33337" y2="7.99968" gradientUnits="userSpaceOnUse">
<stop stop-color="white"/>
<stop offset="1" stop-color="#F0F0F0"/>
</linearGradient>
<clipPath id="clip0_212_5918">
<rect width="28" height="20" fill="white"/>
</clipPath>
</defs>
</svg>
